<?xml version="1.0" encoding="utf-8"?>
<!-- Generator: Adobe Illustrator 26.0.3, SVG Export Plug-In . SVG Version: 6.00 Build 0)  -->
<svg version="1.1" xmlns="http://www.w3.org/2000/svg" xmlns:xlink="http://www.w3.org/1999/xlink" x="0px" y="0px"
	 viewBox="0 0 237.45 199.66" style="enable-background:new 0 0 237.45 199.66;" xml:space="preserve">
<style type="text/css">
	.st0{fill:#06223D;}
	.st1{fill:#2EA5B0;}
	.st2{fill:#2EA6B1;}
	.st3{fill:#146AB0;}
	.st4{opacity:0.5;}
	.st5{fill:#B23156;}
	.st6{fill:#DB86A2;}
	.st7{fill:#0D183E;}
	.st8{fill:#08223C;}
	.st9{fill:#07223C;}
	.st10{fill:#FFFFFF;}
	.st11{fill:none;stroke:#06223D;stroke-miterlimit:10;}
	.st12{fill:none;stroke:#0D183E;stroke-miterlimit:10;}
</style>
<g id="footer">
</g>
<g id="Layer_1">
	<g>
		<g>
			<path class="st5" d="M17.66,160.14c-0.6-0.13-1.16-0.31-1.68-0.56c-0.52-0.25-1-0.55-1.43-0.92l1.18-1.77
				c0.52,0.44,1.1,0.77,1.75,1c0.65,0.23,1.33,0.34,2.06,0.34c0.9,0,1.6-0.16,2.1-0.48c0.5-0.32,0.75-0.78,0.75-1.36v-0.01
				c0-0.41-0.11-0.74-0.33-0.99s-0.51-0.42-0.87-0.54c-0.36-0.11-0.82-0.22-1.38-0.32c-0.02-0.01-0.04-0.01-0.06-0.01
				s-0.04,0-0.06-0.01l-0.17-0.03c-0.9-0.15-1.65-0.33-2.23-0.53c-0.58-0.2-1.08-0.57-1.48-1.09c-0.41-0.53-0.61-1.27-0.61-2.24
				v-0.01c0-0.85,0.19-1.58,0.58-2.19c0.38-0.61,0.94-1.07,1.67-1.38c0.73-0.32,1.61-0.47,2.63-0.47c0.48,0,0.97,0.05,1.45,0.16
				c0.49,0.11,0.96,0.27,1.43,0.47c0.47,0.21,0.92,0.47,1.36,0.77l-1.08,1.83c-0.52-0.37-1.05-0.65-1.59-0.84
				c-0.54-0.19-1.06-0.29-1.58-0.29c-0.85,0-1.51,0.16-1.98,0.47c-0.47,0.31-0.7,0.75-0.7,1.32v0.01c0,0.43,0.12,0.76,0.36,1.01
				c0.24,0.25,0.54,0.43,0.9,0.54c0.36,0.11,0.87,0.24,1.52,0.37c0.02,0.01,0.05,0.01,0.07,0.01c0.02,0,0.04,0.01,0.07,0.01
				c0.03,0.01,0.06,0.01,0.1,0.02s0.07,0.01,0.1,0.02c0.83,0.17,1.53,0.37,2.09,0.6c0.56,0.24,1.03,0.61,1.41,1.13
				c0.38,0.52,0.57,1.23,0.57,2.12v0.02c0,0.84-0.2,1.56-0.59,2.16c-0.4,0.6-0.97,1.06-1.73,1.37c-0.75,0.31-1.66,0.47-2.73,0.47
				C18.89,160.33,18.26,160.27,17.66,160.14z"/>
			<path class="st5" d="M26.07,150.56h2.21l1.71,6.41l2.22-6.41h1.41l2.22,6.41l1.71-6.41h2.21l-2.97,9.63h-1.66l-2.21-6.47
				l-2.21,6.47h-1.66L26.07,150.56z"/>
			<path class="st5" d="M43.3,159.83c-0.64-0.33-1.14-0.82-1.48-1.47c-0.34-0.65-0.51-1.43-0.51-2.34v-1.09
				c0-0.95,0.16-1.77,0.49-2.44c0.32-0.67,0.8-1.19,1.42-1.54c0.62-0.35,1.37-0.53,2.24-0.53c0.82,0,1.53,0.21,2.11,0.62
				c0.58,0.41,1.03,1.01,1.34,1.79c0.31,0.78,0.46,1.72,0.46,2.82v0.63h-6.54v-1.62h4.48l-0.01-0.1c-0.06-0.67-0.25-1.2-0.57-1.57
				s-0.74-0.56-1.27-0.56c-0.67,0-1.18,0.21-1.55,0.63c-0.37,0.42-0.55,1.01-0.55,1.78v1.22c0,0.73,0.2,1.29,0.59,1.68
				c0.4,0.39,0.95,0.59,1.67,0.59c0.36,0,0.73-0.07,1.08-0.21c0.36-0.14,0.68-0.33,0.96-0.58l1.45,1.35
				c-0.49,0.46-1.04,0.81-1.65,1.06c-0.61,0.25-1.22,0.38-1.84,0.38C44.72,160.33,43.95,160.17,43.3,159.83z"/>
			<path class="st5" d="M53.49,159.83c-0.64-0.33-1.14-0.82-1.48-1.47c-0.34-0.65-0.51-1.43-0.51-2.34v-1.09
				c0-0.95,0.16-1.77,0.49-2.44c0.32-0.67,0.8-1.19,1.42-1.54c0.62-0.35,1.37-0.53,2.24-0.53c0.82,0,1.53,0.21,2.11,0.62
				c0.58,0.41,1.03,1.01,1.34,1.79c0.31,0.78,0.46,1.72,0.46,2.82v0.63h-6.54v-1.62h4.48l-0.01-0.1c-0.06-0.67-0.25-1.2-0.57-1.57
				s-0.74-0.56-1.27-0.56c-0.67,0-1.18,0.21-1.55,0.63c-0.37,0.42-0.55,1.01-0.55,1.78v1.22c0,0.73,0.2,1.29,0.59,1.68
				c0.4,0.39,0.95,0.59,1.67,0.59c0.36,0,0.73-0.07,1.08-0.21c0.36-0.14,0.68-0.33,0.96-0.58l1.45,1.35
				c-0.49,0.46-1.04,0.81-1.65,1.06c-0.61,0.25-1.22,0.38-1.84,0.38C54.91,160.33,54.13,160.17,53.49,159.83z"/>
			<path class="st5" d="M61.23,150.56h4.53v1.94h-4.53V150.56z M62.79,159.6c-0.38-0.43-0.57-1.07-0.57-1.91v-9.93h2.22v9.62
				c0,0.24,0.05,0.42,0.14,0.54s0.23,0.19,0.41,0.19h0.77v2.12h-1.19C63.76,160.24,63.16,160.02,62.79,159.6z"/>
			<path class="st5" d="M73.63,159.6c-0.55-0.49-0.83-1.24-0.83-2.24c0-0.95,0.28-1.67,0.83-2.14c0.56-0.48,1.39-0.71,2.5-0.71h2.58
				l0.13,1.73h-2.7c-0.44,0-0.77,0.09-0.99,0.28c-0.22,0.19-0.33,0.47-0.33,0.85c0,0.4,0.14,0.7,0.43,0.9
				c0.28,0.19,0.71,0.29,1.29,0.29c0.71,0,1.23-0.08,1.57-0.23c0.34-0.15,0.52-0.4,0.52-0.72l0.19,1.37
				c-0.11,0.3-0.29,0.56-0.55,0.76c-0.26,0.2-0.58,0.36-0.95,0.46c-0.37,0.1-0.78,0.15-1.22,0.15
				C75.01,160.33,74.18,160.09,73.63,159.6z M78.64,154.09c0-0.54-0.16-0.96-0.48-1.25c-0.32-0.3-0.77-0.45-1.35-0.45
				c-0.37,0-0.74,0.06-1.09,0.18c-0.36,0.12-0.68,0.28-0.96,0.49l-1.48-1.24c0.38-0.44,0.87-0.78,1.48-1.02
				c0.61-0.25,1.29-0.37,2.04-0.37c0.82,0,1.52,0.14,2.1,0.42c0.58,0.28,1.02,0.69,1.33,1.22c0.31,0.53,0.46,1.18,0.46,1.93v6.19
				h-2.05V154.09z"/>
			<path class="st5" d="M83.38,150.56h2.22v9.63h-2.22V150.56z M89.09,154.36c0-0.58-0.15-1.02-0.46-1.34
				c-0.31-0.32-0.75-0.47-1.32-0.47c-0.54,0-0.96,0.15-1.26,0.44s-0.45,0.71-0.45,1.25l-0.19-2c0.29-0.59,0.66-1.04,1.1-1.35
				c0.44-0.31,0.96-0.46,1.56-0.46c1.03,0,1.82,0.34,2.39,1.03c0.57,0.68,0.85,1.65,0.85,2.9v5.84h-2.22V154.36z"/>
			<path class="st5" d="M95.22,159.87c-0.49-0.32-0.87-0.78-1.12-1.38c-0.26-0.6-0.38-1.33-0.38-2.19v-1.84
				c0-0.85,0.13-1.58,0.38-2.19c0.25-0.61,0.62-1.07,1.11-1.39c0.49-0.32,1.07-0.48,1.75-0.48c0.54,0,1.04,0.15,1.49,0.46
				c0.45,0.3,0.81,0.73,1.08,1.28l-0.19,2.05c0-0.37-0.06-0.69-0.19-0.95s-0.32-0.46-0.57-0.59c-0.25-0.14-0.55-0.2-0.9-0.2
				c-0.55,0-0.98,0.18-1.28,0.54c-0.3,0.36-0.45,0.86-0.45,1.5v1.82c0,0.64,0.15,1.13,0.45,1.48c0.3,0.35,0.73,0.52,1.28,0.52
				c0.35,0,0.65-0.07,0.9-0.21c0.25-0.14,0.44-0.34,0.57-0.6s0.19-0.57,0.19-0.94l0.13,2.12c-0.19,0.5-0.5,0.91-0.92,1.21
				c-0.42,0.31-0.94,0.46-1.54,0.46C96.31,160.35,95.72,160.19,95.22,159.87z M99.33,146.7h2.22v13.49h-2.22V146.7z"/>
			<path class="st5" d="M111.8,160.14c-0.6-0.13-1.16-0.31-1.68-0.56c-0.52-0.25-1-0.55-1.43-0.92l1.18-1.77
				c0.52,0.44,1.1,0.77,1.75,1c0.65,0.23,1.33,0.34,2.06,0.34c0.9,0,1.6-0.16,2.1-0.48c0.5-0.32,0.75-0.78,0.75-1.36v-0.01
				c0-0.41-0.11-0.74-0.33-0.99s-0.51-0.42-0.87-0.54c-0.36-0.11-0.82-0.22-1.38-0.32c-0.02-0.01-0.04-0.01-0.06-0.01
				s-0.04,0-0.06-0.01l-0.17-0.03c-0.9-0.15-1.65-0.33-2.23-0.53c-0.58-0.2-1.08-0.57-1.48-1.09c-0.41-0.53-0.61-1.27-0.61-2.24
				v-0.01c0-0.85,0.19-1.58,0.58-2.19c0.38-0.61,0.94-1.07,1.67-1.38c0.73-0.32,1.61-0.47,2.63-0.47c0.48,0,0.97,0.05,1.45,0.16
				c0.49,0.11,0.96,0.27,1.43,0.47c0.47,0.21,0.92,0.47,1.36,0.77l-1.08,1.83c-0.52-0.37-1.05-0.65-1.59-0.84
				c-0.54-0.19-1.06-0.29-1.58-0.29c-0.85,0-1.51,0.16-1.98,0.47c-0.47,0.31-0.7,0.75-0.7,1.32v0.01c0,0.43,0.12,0.76,0.36,1.01
				c0.24,0.25,0.54,0.43,0.9,0.54c0.36,0.11,0.87,0.24,1.52,0.37c0.02,0.01,0.05,0.01,0.07,0.01c0.02,0,0.04,0.01,0.07,0.01
				c0.03,0.01,0.06,0.01,0.1,0.02s0.07,0.01,0.1,0.02c0.83,0.17,1.53,0.37,2.09,0.6c0.56,0.24,1.03,0.61,1.41,1.13
				c0.38,0.52,0.57,1.23,0.57,2.12v0.02c0,0.84-0.2,1.56-0.59,2.16c-0.4,0.6-0.97,1.06-1.73,1.37c-0.75,0.31-1.66,0.47-2.73,0.47
				C113.02,160.33,112.4,160.27,111.8,160.14z"/>
			<path class="st5" d="M121.4,159.6c-0.55-0.49-0.83-1.24-0.83-2.24c0-0.95,0.28-1.67,0.83-2.14c0.56-0.48,1.39-0.71,2.5-0.71h2.58
				l0.13,1.73h-2.7c-0.44,0-0.77,0.09-0.99,0.28c-0.22,0.19-0.33,0.47-0.33,0.85c0,0.4,0.14,0.7,0.43,0.9
				c0.28,0.19,0.71,0.29,1.29,0.29c0.71,0,1.23-0.08,1.57-0.23c0.34-0.15,0.52-0.4,0.52-0.72l0.19,1.37
				c-0.11,0.3-0.29,0.56-0.55,0.76c-0.26,0.2-0.58,0.36-0.95,0.46c-0.37,0.1-0.78,0.15-1.22,0.15
				C122.78,160.33,121.95,160.09,121.4,159.6z M126.41,154.09c0-0.54-0.16-0.96-0.48-1.25c-0.32-0.3-0.77-0.45-1.35-0.45
				c-0.37,0-0.74,0.06-1.09,0.18c-0.36,0.12-0.68,0.28-0.96,0.49l-1.48-1.24c0.38-0.44,0.87-0.78,1.48-1.02
				c0.61-0.25,1.29-0.37,2.04-0.37c0.82,0,1.52,0.14,2.1,0.42c0.58,0.28,1.02,0.69,1.33,1.22c0.31,0.53,0.46,1.18,0.46,1.93v6.19
				h-2.05V154.09z"/>
			<path class="st5" d="M133.05,160.17c-0.52-0.11-1.01-0.27-1.46-0.48c-0.45-0.21-0.86-0.47-1.23-0.77l1.35-1.67
				c0.49,0.35,0.99,0.61,1.5,0.79c0.51,0.18,1.01,0.27,1.49,0.27c0.67,0,1.19-0.09,1.54-0.27c0.35-0.18,0.52-0.45,0.52-0.79
				c0-0.27-0.09-0.47-0.26-0.6c-0.17-0.13-0.39-0.22-0.65-0.27c-0.26-0.05-0.63-0.1-1.11-0.14c-0.08-0.01-0.16-0.01-0.25-0.02
				c-0.09-0.01-0.17-0.01-0.25-0.03c-0.02,0-0.05,0-0.07,0c-0.02,0-0.05,0-0.07,0c-0.67-0.07-1.23-0.18-1.66-0.31
				c-0.43-0.13-0.8-0.39-1.09-0.77c-0.29-0.38-0.44-0.92-0.44-1.62c0-0.66,0.15-1.22,0.44-1.67c0.29-0.45,0.73-0.8,1.29-1.03
				c0.57-0.23,1.27-0.35,2.1-0.35c0.49,0,0.98,0.05,1.45,0.14c0.47,0.1,0.92,0.23,1.35,0.42c0.43,0.18,0.84,0.41,1.22,0.68
				l-1.33,1.61c-0.45-0.27-0.91-0.48-1.37-0.62c-0.46-0.14-0.91-0.21-1.34-0.21c-0.58,0-1.02,0.08-1.33,0.25
				c-0.3,0.17-0.45,0.41-0.45,0.74c0,0.21,0.08,0.37,0.25,0.48s0.38,0.19,0.63,0.23c0.25,0.04,0.61,0.08,1.09,0.12
				c0.05,0.01,0.1,0.01,0.14,0.01c0.05,0,0.09,0.01,0.14,0.01c0.02,0,0.04,0,0.06,0c0.02,0,0.05,0,0.07,0.01
				c0.71,0.07,1.3,0.17,1.77,0.31c0.47,0.14,0.87,0.41,1.2,0.81c0.33,0.4,0.49,0.99,0.49,1.77c0,0.68-0.15,1.25-0.46,1.72
				c-0.31,0.47-0.77,0.82-1.38,1.06c-0.61,0.24-1.36,0.36-2.24,0.36C134.12,160.33,133.57,160.28,133.05,160.17z"/>
			<path class="st5" d="M142.9,160.17c-0.52-0.11-1.01-0.27-1.46-0.48c-0.45-0.21-0.86-0.47-1.23-0.77l1.35-1.67
				c0.49,0.35,0.99,0.61,1.5,0.79c0.51,0.18,1.01,0.27,1.49,0.27c0.67,0,1.19-0.09,1.54-0.27c0.35-0.18,0.52-0.45,0.52-0.79
				c0-0.27-0.09-0.47-0.26-0.6c-0.17-0.13-0.39-0.22-0.65-0.27c-0.26-0.05-0.63-0.1-1.11-0.14c-0.08-0.01-0.16-0.01-0.25-0.02
				c-0.09-0.01-0.17-0.01-0.25-0.03c-0.02,0-0.05,0-0.07,0c-0.02,0-0.05,0-0.07,0c-0.67-0.07-1.23-0.18-1.66-0.31
				c-0.43-0.13-0.8-0.39-1.09-0.77c-0.29-0.38-0.44-0.92-0.44-1.62c0-0.66,0.15-1.22,0.44-1.67c0.29-0.45,0.73-0.8,1.29-1.03
				c0.57-0.23,1.27-0.35,2.1-0.35c0.49,0,0.98,0.05,1.45,0.14c0.47,0.1,0.92,0.23,1.35,0.42c0.43,0.18,0.84,0.41,1.22,0.68
				l-1.33,1.61c-0.45-0.27-0.91-0.48-1.37-0.62c-0.46-0.14-0.91-0.21-1.34-0.21c-0.58,0-1.02,0.08-1.33,0.25
				c-0.3,0.17-0.45,0.41-0.45,0.74c0,0.21,0.08,0.37,0.25,0.48s0.38,0.19,0.63,0.23c0.25,0.04,0.61,0.08,1.09,0.12
				c0.05,0.01,0.1,0.01,0.14,0.01c0.05,0,0.09,0.01,0.14,0.01c0.02,0,0.04,0,0.06,0c0.02,0,0.05,0,0.07,0.01
				c0.71,0.07,1.3,0.17,1.77,0.31c0.47,0.14,0.87,0.41,1.2,0.81c0.33,0.4,0.49,0.99,0.49,1.77c0,0.68-0.15,1.25-0.46,1.72
				c-0.31,0.47-0.77,0.82-1.38,1.06c-0.61,0.24-1.36,0.36-2.24,0.36C143.97,160.33,143.42,160.28,142.9,160.17z"/>
			<path class="st5" d="M149.83,150.56H152l3.1,8.37l-1.33,2.05L149.83,150.56z M158.55,150.56l-4.19,11.88
				c-0.15,0.44-0.35,0.79-0.59,1.04c-0.24,0.26-0.53,0.44-0.89,0.55s-0.79,0.17-1.3,0.17h-0.47v-2.14h0.47
				c0.32,0,0.57-0.07,0.77-0.2c0.19-0.13,0.35-0.35,0.48-0.66l3.56-10.65H158.55z"/>
			<path class="st5" d="M165.32,146.7h2.21v13.49h-2.21V146.7z M166.43,158.1h3.98c0.77,0,1.35-0.16,1.73-0.49
				c0.38-0.32,0.57-0.78,0.57-1.36v-0.03c0-0.4-0.07-0.75-0.22-1.03c-0.15-0.28-0.38-0.5-0.69-0.65c-0.31-0.15-0.69-0.23-1.15-0.23
				h-4.21v-2.08h4.21c0.61,0,1.08-0.15,1.4-0.45c0.32-0.3,0.48-0.73,0.48-1.29c0-0.56-0.17-0.98-0.51-1.27
				c-0.34-0.29-0.84-0.43-1.5-0.43h-4.08v-2.1h4.3c0.87,0,1.61,0.15,2.21,0.44c0.6,0.29,1.06,0.71,1.36,1.26
				c0.31,0.54,0.46,1.2,0.46,1.96c0,0.5-0.1,0.94-0.29,1.35c-0.2,0.41-0.48,0.74-0.86,1.02c-0.38,0.27-0.85,0.46-1.4,0.56
				c0.57,0.08,1.06,0.27,1.47,0.56s0.72,0.67,0.94,1.12c0.22,0.45,0.32,0.96,0.32,1.53v0.03c0,0.75-0.16,1.4-0.49,1.95
				c-0.33,0.55-0.79,0.98-1.4,1.28c-0.61,0.3-1.33,0.45-2.17,0.45h-4.45V158.1z"/>
			<path class="st5" d="M177.76,159.6c-0.55-0.49-0.83-1.24-0.83-2.24c0-0.95,0.28-1.67,0.83-2.14c0.56-0.48,1.39-0.71,2.5-0.71
				h2.58l0.13,1.73h-2.7c-0.44,0-0.77,0.09-0.99,0.28c-0.22,0.19-0.33,0.47-0.33,0.85c0,0.4,0.14,0.7,0.43,0.9
				c0.28,0.19,0.71,0.29,1.29,0.29c0.71,0,1.23-0.08,1.57-0.23c0.34-0.15,0.52-0.4,0.52-0.72l0.19,1.37
				c-0.11,0.3-0.29,0.56-0.55,0.76c-0.26,0.2-0.58,0.36-0.95,0.46c-0.37,0.1-0.78,0.15-1.22,0.15
				C179.14,160.33,178.31,160.09,177.76,159.6z M182.77,154.09c0-0.54-0.16-0.96-0.48-1.25c-0.32-0.3-0.77-0.45-1.35-0.45
				c-0.37,0-0.74,0.06-1.09,0.18c-0.36,0.12-0.68,0.28-0.96,0.49l-1.48-1.24c0.38-0.44,0.87-0.78,1.48-1.02
				c0.61-0.25,1.29-0.37,2.04-0.37c0.82,0,1.52,0.14,2.1,0.42c0.58,0.28,1.02,0.69,1.33,1.22c0.31,0.53,0.46,1.18,0.46,1.93v6.19
				h-2.05V154.09z"/>
			<path class="st5" d="M187.51,146.7h2.22v13.49h-2.22V146.7z M188.51,156.63l4.72-6.07h2.46l-7.07,8.59L188.51,156.63z
				 M190.77,154.92l1.66-1.26l3.74,6.53h-2.5L190.77,154.92z"/>
			<path class="st5" d="M199.26,159.83c-0.64-0.33-1.14-0.82-1.48-1.47c-0.34-0.65-0.51-1.43-0.51-2.34v-1.09
				c0-0.95,0.16-1.77,0.49-2.44c0.32-0.67,0.8-1.19,1.42-1.54c0.62-0.35,1.37-0.53,2.24-0.53c0.82,0,1.53,0.21,2.11,0.62
				c0.58,0.41,1.03,1.01,1.34,1.79c0.31,0.78,0.46,1.72,0.46,2.82v0.63h-6.54v-1.62h4.48l-0.01-0.1c-0.06-0.67-0.25-1.2-0.57-1.57
				s-0.74-0.56-1.27-0.56c-0.67,0-1.18,0.21-1.55,0.63c-0.37,0.42-0.55,1.01-0.55,1.78v1.22c0,0.73,0.2,1.29,0.59,1.68
				c0.4,0.39,0.95,0.59,1.67,0.59c0.36,0,0.73-0.07,1.08-0.21c0.36-0.14,0.68-0.33,0.96-0.58l1.45,1.35
				c-0.49,0.46-1.04,0.81-1.65,1.06c-0.61,0.25-1.22,0.38-1.84,0.38C200.68,160.33,199.91,160.17,199.26,159.83z"/>
			<path class="st5" d="M207.74,150.56h2.31v9.63h-2.31V150.56z M212.56,152.67c-0.22-0.08-0.47-0.12-0.75-0.12
				c-0.56,0-0.99,0.17-1.29,0.5c-0.31,0.33-0.46,0.79-0.46,1.38l-0.19-2.18c0.28-0.58,0.64-1.02,1.09-1.34
				c0.45-0.32,0.94-0.48,1.48-0.48c0.42,0,0.8,0.06,1.14,0.19s0.64,0.31,0.89,0.56l-1.36,1.86
				C212.96,152.88,212.78,152.76,212.56,152.67z"/>
			<path class="st5" d="M214.83,150.56h2.16l3.1,8.37l-1.33,2.05L214.83,150.56z M223.54,150.56l-4.19,11.88
				c-0.15,0.44-0.35,0.79-0.59,1.04s-0.53,0.44-0.89,0.55s-0.79,0.17-1.3,0.17h-0.47v-2.14h0.47c0.32,0,0.57-0.07,0.77-0.2
				c0.19-0.13,0.35-0.35,0.48-0.66l3.56-10.65H223.54z"/>
		</g>
	</g>
	<g>
		<path class="st5" d="M63.28,97.99v17.26h118.17v16.24H52V65.28c0-0.51,0.11-1.02,0.4-1.45c0.14-0.25,29.3-15.41,29.3-15.41
			c0.8-0.73,1.96-0.94,2.97-0.54c37.38,1.6,52.36,7.13,94.93,14.72c2.97,1.16,2.14,5.55-1.02,5.55H63.28v22.19h118.17v7.65H63.28z"
			/>
		<path class="st6" d="M87.01,57.81h37.88c7.26-8.89,10.03-14.47,1.8-13.8c0.34-3.45-1.99-3.71-6.01-1.95
			c0.13-7.51-4.97-11.18-10.81-14.3c-0.94-0.5-2.04,0.11-2.22,1.16c-0.89,5.45-3.62,14.35-12.08,14.35
			c-6.9,0.12-7.52,6.31-2.25,9.62C94.14,53.39,88.18,55.02,87.01,57.81z"/>
	</g>
</g>
<g id="Layer_2">
</g>
</svg>
