<svg id="Layer_2" data-name="Layer 2" xmlns="http://www.w3.org/2000/svg" viewBox="0 0 745 641.1"><defs><style>.cls-1{fill:#babc6c;}.cls-2{fill:#a06cbc;}.cls-3{fill:#efe860;}.cls-4{fill:#6cbcad;}.cls-5{fill:#ba6c6c;}.cls-6{fill:#97bc6c;}.cls-11,.cls-12,.cls-13,.cls-14,.cls-15,.cls-16,.cls-7,.cls-9{fill:none;stroke-miterlimit:10;}.cls-7{stroke:#97bc6c;}.cls-12,.cls-14,.cls-15,.cls-7,.cls-9{stroke-width:3px;}.cls-8{fill:#bc6c98;}.cls-9{stroke:#6cbcad;}.cls-10{fill:#6b97bd;}.cls-11,.cls-16{stroke:#6b97bd;}.cls-11{stroke-width:11px;}.cls-12{stroke:#a06cbc;}.cls-13{stroke:#bc6c98;stroke-width:8.48px;}.cls-14{stroke:#efe860;}.cls-15{stroke:#ba6c6c;}.cls-16{stroke-width:2px;}</style></defs><title>brain-color</title><path class="cls-1" d="M357.72,491.54c-4.75,3.65-9.65,7-14.68,10.26a163.94,163.94,0,0,1-15.63,8.92,41.35,41.35,0,0,1-8.72,3.36l-.62.13-.68.08a7.38,7.38,0,0,1-1.47,0,9.48,9.48,0,0,1-2.65-.74,20.22,20.22,0,0,1-4.19-2.48,39.57,39.57,0,0,1-11.53-14.47,46.15,46.15,0,0,1-3.17-8.66,53.43,53.43,0,0,1-1.58-9,70.83,70.83,0,0,1,.83-18.18c2.05-12,6.74-23.2,12.24-33.81l.12-.22.19-.16h0q21.75-18.79,43-38.07c7.1-6.43,14.1-13,21.09-19.51l20.89-19.78c3.52-3.28,7.06-6.55,10.91-9.6l1.44-1.15,1.51-1.08,1.52-1.08c.51-.36,1.06-.66,1.59-1l1.6-1c.54-.31,1.11-.58,1.67-.87l1.68-.86,1.69-.75a139.32,139.32,0,0,1,13.72-5,141.38,141.38,0,0,1,14.15-3.62,90.78,90.78,0,0,1,14.64-1.78,41.29,41.29,0,0,1,15.08,2,20.59,20.59,0,0,1,7,4.12,17.42,17.42,0,0,1,4.61,6.93,24.07,24.07,0,0,1,1.34,7.92,39.35,39.35,0,0,1-.74,7.66l-3-3.14h0c14.45-2,29.45-2.65,44,.46a61.44,61.44,0,0,1,20.78,8.34,44.2,44.2,0,0,1,15.16,16.62,56.94,56.94,0,0,1,5.93,21.5,91.4,91.4,0,0,1,.2,11.07c-.19,3.68-.52,7.34-1,11a160.83,160.83,0,0,1-4.64,21.4c-2,7-4.32,13.91-6.89,20.71l-2.37-.88c2.44-6.78,4.64-13.64,6.49-20.59a157.81,157.81,0,0,0,4.21-21.07c.46-3.54.72-7.1.85-10.66a87.94,87.94,0,0,0-.36-10.62,53.21,53.21,0,0,0-5.83-20,40.08,40.08,0,0,0-14-14.88,57,57,0,0,0-19.42-7.41,98.66,98.66,0,0,0-21.09-1.7,155.79,155.79,0,0,0-21.27,2h0l-3.72.51.74-3.65c.89-4.41,1.12-9-.22-12.82a12.29,12.29,0,0,0-3.2-5,15.59,15.59,0,0,0-5.28-3.17,36.62,36.62,0,0,0-13.25-1.84,86.17,86.17,0,0,0-13.89,1.53,136.9,136.9,0,0,0-13.73,3.34,135.1,135.1,0,0,0-13.34,4.68l-1.6.69-1.53.76c-.51.26-1,.49-1.53.77l-1.47.88c-.49.3-1,.57-1.47.9l-1.43,1-1.42,1-1.39,1.08c-3.7,2.86-7.25,6-10.78,9.26l-21.11,19.51c-7.08,6.48-14.17,12.93-21.36,19.29q-21.52,19.11-43.57,37.6h0l.3-.38c-5.24,10.54-9.52,21.63-11.36,33.16a67.57,67.57,0,0,0-.61,17.33,50,50,0,0,0,1.57,8.47,45.37,45.37,0,0,0,3,8,36.08,36.08,0,0,0,10.49,13.12,16.75,16.75,0,0,0,3.46,2,6,6,0,0,0,1.62.47,3.91,3.91,0,0,0,.75,0l.43,0,.47-.1a38.48,38.48,0,0,0,7.85-3.09c5.22-2.59,10.29-5.64,15.35-8.68s10.09-6.19,15.12-9.29Z" transform="translate(-5.28 -8.32)"/><path class="cls-2" d="M454.7,361.9l-12,16-.31.42-.51.14h0a61.13,61.13,0,0,0-17.15,9.2,25.6,25.6,0,0,0-6.07,6.77,13.82,13.82,0,0,0-1.6,3.9,7.11,7.11,0,0,0-.2,1,6.37,6.37,0,0,0-.13,1c0,.36-.05.64-.07,1.06l-.06,1.27c-.34,6.77-.61,13.54-1,20.31s-.73,13.54-1.21,20.3v-.75c.78,6,1.94,12.08,3.32,18a163.56,163.56,0,0,0,5,17.52q.75,2.12,1.62,4.18c.57,1.37,1.15,2.73,1.81,4a37.17,37.17,0,0,0,4.57,7.21,14,14,0,0,0,6.27,4.53,12.72,12.72,0,0,0,8-.4l1.3,2.7a16.91,16.91,0,0,1-4.78,2,14,14,0,0,1-5.48.27,15.73,15.73,0,0,1-5.24-1.82,21.92,21.92,0,0,1-4.3-3.21,36.52,36.52,0,0,1-6.26-8,62.7,62.7,0,0,1-4.37-8.83A116.51,116.51,0,0,1,410,462.35c-1.41-6.26-2.51-12.45-3.31-18.9l0-.35,0-.4c.49-6.74,1.13-13.47,1.68-20.2s1.25-13.46,1.87-20.2l.12-1.26c0-.42.12-1,.19-1.46a11.28,11.28,0,0,1,.29-1.49,12.22,12.22,0,0,1,.4-1.46,19.78,19.78,0,0,1,2.58-5.31,27,27,0,0,1,3.67-4.33,36.36,36.36,0,0,1,4.29-3.41,49.13,49.13,0,0,1,9.39-4.94,60.94,60.94,0,0,1,10-3.1h0l-.82.55,12-16Z" transform="translate(-5.28 -8.32)"/><path class="cls-2" d="M423.08,480c-.14.32-.26.56-.38.81s-.24.49-.36.73c-.24.47-.49.95-.74,1.4-.5.92-1,1.81-1.56,2.7s-1.1,1.75-1.65,2.61-1.15,1.7-1.75,2.53a78.14,78.14,0,0,1-7.87,9.36c-1.39,1.49-2.93,2.82-4.42,4.2s-3.09,2.62-4.78,3.76a67.33,67.33,0,0,1-10.36,6.19l-1.44-2.63a63.58,63.58,0,0,0,9-7c1.43-1.23,2.67-2.68,4-4s2.48-2.83,3.59-4.36a71.59,71.59,0,0,0,6.13-9.41l1.3-2.48c.4-.84.81-1.67,1.19-2.51s.74-1.69,1.07-2.54.67-1.75.88-2.43Z" transform="translate(-5.28 -8.32)"/><path class="cls-2" d="M409.09,440.63c-1.59-.78-3.45-1.56-5.23-2.24s-3.63-1.33-5.48-1.9A67.19,67.19,0,0,0,387.1,434a44.35,44.35,0,0,0-5.71-.38,33,33,0,0,0-5.65.42,25.73,25.73,0,0,0-5.41,1.45,22.85,22.85,0,0,0-4.88,2.68l-1.89-2.33a26.08,26.08,0,0,1,5.36-3.54,29.43,29.43,0,0,1,6-2.15,37.14,37.14,0,0,1,6.27-1,49,49,0,0,1,6.3-.09,72.54,72.54,0,0,1,12.36,1.7q3,.67,6,1.55c2,.6,3.92,1.21,6,2Z" transform="translate(-5.28 -8.32)"/><path class="cls-3" d="M480,377c.35,4.46.51,8.92.6,13.38s.1,8.92.05,13.38c-.12,8.92-.38,17.83-1.16,26.74l-.12,1.35-1.07.1h0c-3.79,2.42-8.64,2.82-12.94,2.08a32.19,32.19,0,0,1-11.86-4.78,48.73,48.73,0,0,1-9.52-7.84,41.25,41.25,0,0,1-7.11-9.95l2.26-2c3.34,2,6.57,4.09,9.71,6.1s6.27,3.94,9.39,5.66c1.56.88,3.13,1.66,4.7,2.41s3.12,1.46,4.68,2.12,3.15,1.29,4.79,1.8,3.35,1,5.29,1.43h0l-1.19,1.45c-.61-8.92-.7-17.84-.66-26.76,0-4.46.12-8.92.3-13.37s.42-8.91.85-13.37Z" transform="translate(-5.28 -8.32)"/><path class="cls-3" d="M494.36,452l-18.53-18.7L474,431.39l1.83-2.62c2.45-3.5,5.11-6.83,7.82-10.13s5.52-6.5,8.4-9.65,5.87-6.21,8.9-9.23c1.51-1.51,3-3,4.53-4.55l2.25-2.29a21.14,21.14,0,0,0,2.16-2.36l2.32,1.91a21.14,21.14,0,0,0-1.9,2.57l-1.82,2.65c-1.22,1.76-2.4,3.54-3.6,5.32-2.38,3.56-4.8,7.09-7.35,10.52s-5.17,6.79-7.85,10.1-5.46,6.55-8.43,9.62l0-4.51L496.64,450Z" transform="translate(-5.28 -8.32)"/><path class="cls-3" d="M459.47,427.48c.75,1.16.58,1.67.24,2.05l-.9,1.24L457,433.23c-1.24,1.62-2.47,3.25-3.74,4.85l-1.92,2.39-2,2.35c-1.35,1.54-2.69,3.09-4.14,4.56l-2.44-1.75c.92-1.85,2-3.62,3-5.39l1.59-2.63L449,435c1.1-1.72,2.25-3.41,3.38-5.1l1.75-2.51.88-1.25c.25-.45.68-.77,2-.43Z" transform="translate(-5.28 -8.32)"/><path class="cls-4" d="M481.92,332.47c0,.06,0,.09.05-.05a.79.79,0,0,0-.12-.37c-.09-.11.16,0,.45,0a11.39,11.39,0,0,0,2.24-.15,45.25,45.25,0,0,0,5-1.09c3.36-.92,6.71-2,10-3.27,1.63-.61,3.24-1.29,4.79-2a23.29,23.29,0,0,0,4.15-2.29,3.37,3.37,0,0,0,.43-.39s-.09.07-.22.51l.12-.57.56-2.66,1.13-5.31c1.54-7.06,3.09-14,4.07-21l.4-2.63.27-2.63.28-2.63.14-1.32.06-1.32.24-5.27c0-1.76-.07-3.51-.1-5.27,0-.88,0-1.76-.09-2.63l-.24-2.63-.24-2.63c-.09-.88-.11-1.76-.29-2.62l-.84-5.22c-.16-.87-.24-1.75-.46-2.61l-.6-2.58-1.21-5.17c-.49-1.7-1-3.39-1.54-5.09s-1-3.41-1.6-5.08l-1.88-5c-.65-1.66-1.2-3.35-1.93-5l-2.14-4.91-2.13-4.92-2.38-4.82c-3.05-6.49-6.66-12.7-10-19l2.57-1.55,5.64,9.3c1.93,3.07,3.56,6.33,5.31,9.51l2.59,4.8,2.35,4.93,2.34,4.94c.78,1.65,1.39,3.38,2.09,5.06l2,5.09c.67,1.7,1.18,3.47,1.77,5.2s1.17,3.48,1.71,5.23l1.38,5.34.69,2.67c.25.89.36,1.81.54,2.71l1,5.44c.32,1.82.44,3.67.65,5.5l.29,2.76c.1.92.08,1.85.13,2.77.05,1.85.14,3.7.16,5.55l-.19,5.54,0,1.39-.13,1.38-.26,2.75-.26,2.76-.39,2.73c-1,7.29-2.56,14.42-4.06,21.46L515,321.31l-.54,2.63-.16.75a4.5,4.5,0,0,1-.84,1.7,8.06,8.06,0,0,1-1.54,1.46,20,20,0,0,1-2.71,1.65c-.88.46-1.75.86-2.63,1.24-1.75.74-3.52,1.36-5.29,1.95s-3.56,1.07-5.36,1.52-3.62.82-5.48,1.11a36.83,36.83,0,0,1-5.7.51,13.14,13.14,0,0,1-3.16-.34,4.23,4.23,0,0,1-2-1.06,2.6,2.6,0,0,1-.75-1.53,2.88,2.88,0,0,1,.2-1.38Z" transform="translate(-5.28 -8.32)"/><path class="cls-4" d="M469.45,292.5a3.55,3.55,0,0,0,2.25-.84,5.65,5.65,0,0,0,1.5-2.25,19.33,19.33,0,0,0,1.09-6.27,65.55,65.55,0,0,0-1.25-13.43,144.38,144.38,0,0,0-7.64-26.25,100,100,0,0,0-5.78-12.33,40.38,40.38,0,0,0-3.7-5.53,14.54,14.54,0,0,0-2.2-2.2,5.73,5.73,0,0,0-1.15-.71,2.4,2.4,0,0,0-1-.2,14.51,14.51,0,0,0-5.8,2.17,31.38,31.38,0,0,0-5.24,4,65.29,65.29,0,0,0-8.85,10.16h0l.25-1.06c1.23,8.2,2.07,16.39,2.63,24.64s.79,16.52.53,24.82a133.06,133.06,0,0,1-2.86,24.9,61,61,0,0,1-4,12.22,31.87,31.87,0,0,1-7.88,10.94l-3.82-4.63a26.17,26.17,0,0,0,6.63-8.74,55.68,55.68,0,0,0,4-11A128.35,128.35,0,0,0,430.65,287c.5-8.1.51-16.26.22-24.42s-.89-16.33-1.85-24.4l-.07-.62.32-.45h0a68.11,68.11,0,0,1,9.3-10.68,34.32,34.32,0,0,1,5.73-4.38,17.37,17.37,0,0,1,7.07-2.59,5.32,5.32,0,0,1,2.41.42,8.64,8.64,0,0,1,1.8,1.08,17.41,17.41,0,0,1,2.69,2.67,43.24,43.24,0,0,1,4,6,102.89,102.89,0,0,1,6,12.71,147.31,147.31,0,0,1,7.8,26.82,68.36,68.36,0,0,1,1.29,14.08,22.12,22.12,0,0,1-1.3,7.29,8.6,8.6,0,0,1-2.35,3.41,6.59,6.59,0,0,1-4.1,1.54Z" transform="translate(-5.28 -8.32)"/><path class="cls-1" d="M513,311.08a289.87,289.87,0,0,0,34.67-11.31,122.47,122.47,0,0,0,16.3-7.86,47.39,47.39,0,0,0,7.2-5.12,42.66,42.66,0,0,0,5.78-6.66,64.7,64.7,0,0,0,8.44-15.81,49.63,49.63,0,0,0,2.33-8.64,29.17,29.17,0,0,0,.27-8.79,15.58,15.58,0,0,0-1.13-4.11,7.35,7.35,0,0,0-.47-.94,7.23,7.23,0,0,0-.55-.88l-.68-1a8.38,8.38,0,0,1-.61-1.16,9.46,9.46,0,0,1-.57-5.06,16.78,16.78,0,0,1,1.43-4.66,37.12,37.12,0,0,1,5.15-7.88,62.74,62.74,0,0,1,6.47-6.72l.92,1a61.34,61.34,0,0,0-6.12,6.7,35.43,35.43,0,0,0-4.71,7.61c-1.15,2.67-1.74,5.69-.63,8.1a6.24,6.24,0,0,0,.48.86l.63.89a13.17,13.17,0,0,1,1.29,2.15,17.86,17.86,0,0,1,1.44,4.69,31.61,31.61,0,0,1,0,9.55,52.34,52.34,0,0,1-2.21,9.18,67.78,67.78,0,0,1-8.41,16.8,45.87,45.87,0,0,1-6.08,7.38,51,51,0,0,1-7.62,5.75,126.37,126.37,0,0,1-16.62,8.58c-5.69,2.49-11.47,4.71-17.3,6.77s-11.69,4-17.7,5.68Z" transform="translate(-5.28 -8.32)"/><path class="cls-5" d="M665.5,192c-.19,6.06-.57,12.09-1.15,18.13a138.41,138.41,0,0,1-2.73,18.08,41.39,41.39,0,0,1-1.35,4.5,13.24,13.24,0,0,1-2.52,4.48,5,5,0,0,1-1.34,1,3.66,3.66,0,0,1-1.92.39c-.25,0-.16,0-.15,0a.15.15,0,0,1,.07,0,.39.39,0,0,0,.18-.09s-.06.1-.14.31a8.78,8.78,0,0,0-.41,1.83c-.1.7-.17,1.42-.23,2.16-.44,5.93-.83,12.25-3,18.26a27.62,27.62,0,0,1-4.76,8.4,25,25,0,0,1-7.63,6.08c-5.82,3-12.29,3.84-18.49,3.85a92,92,0,0,1-18.38-2.12c-3-.65-6-1.34-8.92-2.16-1.48-.38-2.94-.84-4.4-1.26a8.59,8.59,0,0,1-4.12-2.1l.94-2.85a8.65,8.65,0,0,1,4.5.63c1.43.42,2.85.89,4.28,1.27,2.86.83,5.75,1.54,8.64,2.2a87.78,87.78,0,0,0,17.49,2.22c5.8.07,11.66-.7,16.65-3.21a22.13,22.13,0,0,0,10.73-12.25,41.1,41.1,0,0,0,2.16-8.37c.47-2.9.7-5.85,1-8.9.08-.76.17-1.54.3-2.34a11.6,11.6,0,0,1,.65-2.56,4.14,4.14,0,0,1,1.09-1.57,2.88,2.88,0,0,1,1.19-.58,2.13,2.13,0,0,1,.63-.07h.41c.12,0,.36,0,.74-.4a10.55,10.55,0,0,0,1.9-3.35,38.5,38.5,0,0,0,1.33-4.14,136,136,0,0,0,3.14-17.61c.72-6,1.28-12,1.68-17.94Z" transform="translate(-5.28 -8.32)"/><path class="cls-6" d="M618.59,123a26.9,26.9,0,0,1,4.1,4.94,16.79,16.79,0,0,1,2.57,6.29,10,10,0,0,1-.08,3.83,8.79,8.79,0,0,1-1.72,3.62,13.57,13.57,0,0,1-5.94,4.16,29.61,29.61,0,0,1-6.35,1.67c-1.08.17-2.08.3-3.07.42l-3,.37c-.48.06-1,.13-1.34.2l-.22,0c-.07,0,0,0,.13-.05a1.79,1.79,0,0,0,.34-.19l.08-.06.19-.16a2.46,2.46,0,0,0,.5-.62,2.83,2.83,0,0,0,.3-.81,2.56,2.56,0,0,0,0-1.18,3,3,0,0,0-.17-.45l-.09-.18a2.22,2.22,0,0,0-.23-.34,2.85,2.85,0,0,0-.28-.29l-.15-.11h0c.19.11.74.37,1.19.6s1,.5,1.46.78a19.47,19.47,0,0,1,5.35,4.44,17.45,17.45,0,0,1,3.28,6.23,22.6,22.6,0,0,1,.83,6.73,39.17,39.17,0,0,1-2.61,12.51,74.06,74.06,0,0,1-5.29,11.18,113.42,113.42,0,0,1-6.6,10.26h0l-.62-2.17a14.78,14.78,0,0,1,6.73,6.26,22.68,22.68,0,0,1,2.49,8.6c.6,5.81.06,11.46.15,17a36.85,36.85,0,0,0,.85,8,13.2,13.2,0,0,0,3.5,6.62,14.63,14.63,0,0,0,6.66,3.51,34.68,34.68,0,0,0,8,.88v3a37.56,37.56,0,0,1-8.72-1,17.6,17.6,0,0,1-8-4.28,5.62,5.62,0,0,1-.8-.86l-.74-.91c-.45-.63-.83-1.31-1.22-2s-.67-1.39-.9-2.11a21,21,0,0,1-.64-2.17,39.69,39.69,0,0,1-.93-8.69c-.09-5.71.43-11.31-.14-16.69a19.77,19.77,0,0,0-2.12-7.46,11.74,11.74,0,0,0-5.4-5l-1.53-.71.92-1.45h0c3.92-6.91,7.57-14,9.91-21.34a36.63,36.63,0,0,0,1.92-11,14.44,14.44,0,0,0-3.09-9.46,14,14,0,0,0-3.9-3.16c-.38-.22-.78-.42-1.2-.63s-.81-.38-1.5-.75l-.33-.21-.29-.22a2.58,2.58,0,0,1-.42-.42,3.35,3.35,0,0,1-.29-.41l-.12-.22a2.8,2.8,0,0,1-.18-.49,3,3,0,0,1,0-1.27,2.58,2.58,0,0,1,.34-.89,3.07,3.07,0,0,1,.56-.69,2,2,0,0,1,.22-.19l.12-.08a3.91,3.91,0,0,1,.51-.28,4.71,4.71,0,0,1,.85-.27l.52-.1c.61-.1,1.12-.17,1.63-.23l3-.34c1-.11,2-.22,2.9-.36a25.24,25.24,0,0,0,5.31-1.18,9.49,9.49,0,0,0,4-2.38,4.18,4.18,0,0,0,1-1.7,5.39,5.39,0,0,0,.23-2.14,13.94,13.94,0,0,0-1.51-4.94,30,30,0,0,0-2.95-4.78Z" transform="translate(-5.28 -8.32)"/><path class="cls-7" d="M600.5,196s-18-12-39-11" transform="translate(-5.28 -8.32)"/><path class="cls-6" d="M552.3,359.92c7.42-1.81,14.74-3.37,22.17-4.8s14.85-2.68,22.34-3.66a198.78,198.78,0,0,1,22.66-1.85,83.77,83.77,0,0,1,11.49.54,38,38,0,0,1,5.76,1.14l1.43.42,1.41.58a18.3,18.3,0,0,1,2.74,1.45l-1.63,2.52c-2.89-1.58-6.51-2.14-10.08-2.37a79.8,79.8,0,0,0-10.92.24,193.73,193.73,0,0,0-21.88,3.31c-7.26,1.47-14.48,3.2-21.65,5.09s-14.35,4-21.34,6.17Z" transform="translate(-5.28 -8.32)"/><path class="cls-8" d="M570,389.6c5.21,2.4,10.27,4.81,15.33,7.39l3.77,2,3.74,2c1.25.67,2.46,1.42,3.7,2.12s2.46,1.44,3.67,2.19a109.79,109.79,0,0,1,14.08,10c.56.47,1.13.92,1.67,1.41l1.6,1.51c1,1,2.16,2,3.11,3.13s2,2.21,2.95,3.34a21.78,21.78,0,0,0,2.41,2.38,18.84,18.84,0,0,0,5.88,3.26,30.09,30.09,0,0,0,7.09,1.31,47.45,47.45,0,0,0,7.68-.1,75.84,75.84,0,0,0,7.9-1.09,104.29,104.29,0,0,0,15.83-4.26,150.15,150.15,0,0,0,15.28-6.46l1.53,2.58a133,133,0,0,1-14.92,8.37,115.61,115.61,0,0,1-16,6.57,61.41,61.41,0,0,1-8.62,2.08,43.92,43.92,0,0,1-9.11.64,32.66,32.66,0,0,1-9.41-1.68,24.63,24.63,0,0,1-8.55-5.17l-.91-.88-.45-.44-.4-.49-1.54-2c-.79-1.06-1.56-2.14-2.33-3.22s-1.67-2.08-2.5-3.13l-1.27-1.57c-.43-.52-.91-1-1.37-1.5a96,96,0,0,0-12-11.2A103.63,103.63,0,0,0,569,392.4Z" transform="translate(-5.28 -8.32)"/><polygon class="cls-8" points="662.21 444.63 652.29 425.42 654.81 423.8 668.23 440.74 662.21 444.63"/><path class="cls-6" d="M318,375.57q7.17-3,14.42-5.76c4.82-1.88,9.68-3.63,14.53-5.44l14.61-5.19q7.32-2.55,14.67-5l.53-.13c-.1,0,0,0,0,0l.13,0,.31-.1c.22-.08.45-.16.68-.27a11.31,11.31,0,0,0,1.35-.7,11.72,11.72,0,0,0,2.39-1.93,13.77,13.77,0,0,0,3.16-5.54c1.35-4.33,1.29-9.49.52-14.62a101.7,101.7,0,0,0-3.77-15.54c-1.62-5.19-3.55-10.35-5.42-15.6l2.66-1.38a105.69,105.69,0,0,1,8.47,14.75A76,76,0,0,1,393,329.49a45.54,45.54,0,0,1,1,9,31,31,0,0,1-1.29,9.45,21.72,21.72,0,0,1-5.13,8.77,18.84,18.84,0,0,1-4.13,3.23,19.39,19.39,0,0,1-2.38,1.17c-.41.17-.84.32-1.28.47-.23.07-.44.14-.69.2l-.37.09-.5.1.53-.13q-7.4,2.29-14.83,4.49L349,370.63c-5,1.36-10,2.77-15,4.06s-10,2.58-15.08,3.74Z" transform="translate(-5.28 -8.32)"/><path class="cls-9" d="M434.38,270.83s-13.88,52.31-46.88,52.24" transform="translate(-5.28 -8.32)"/><path class="cls-4" d="M320.26,470.46c.07-.36.12-.52.18-.75s.12-.42.18-.62c.12-.41.27-.79.41-1.18a21,21,0,0,1,1-2.21,23.54,23.54,0,0,1,2.65-4,23,23,0,0,1,7.36-5.88,28.9,28.9,0,0,1,8.68-2.8,41.37,41.37,0,0,1,8.8-.45,71.74,71.74,0,0,1,16.8,3.12,135.47,135.47,0,0,1,15.74,5.92l-1.15,2.77a132.06,132.06,0,0,0-15.61-4.93,67.5,67.5,0,0,0-15.9-2.1c-5.24,0-10.45,1-14.64,3.44a17.14,17.14,0,0,0-5.28,4.7,17.31,17.31,0,0,0-1.77,3,14.62,14.62,0,0,0-.63,1.6c-.08.27-.17.54-.23.8s-.07.26-.09.38a2.47,2.47,0,0,0,0,.26Z" transform="translate(-5.28 -8.32)"/><path class="cls-10" d="M275.14,436.49a1.56,1.56,0,0,0-.1.17l-.14.27-.3.59c-.2.4-.39.82-.58,1.24-.38.84-.73,1.71-1,2.58a34.7,34.7,0,0,0-1.49,5.23,17.44,17.44,0,0,0,.26,9.2,9.58,9.58,0,0,0,.85,1.75c.39.72.41.5,2,2.73a18.94,18.94,0,0,1,2,4.47c.42,1.33.72,2.55,1,3.69,1,4.57,1.68,8.51,2.86,12.34a45.74,45.74,0,0,0,12,20,73.44,73.44,0,0,0,20.43,13.69A143.57,143.57,0,0,0,337,523a246.64,246.64,0,0,0,25.42,5.28A445.25,445.25,0,0,0,414.51,533v2a448.79,448.79,0,0,1-52.76-1.51,252.68,252.68,0,0,1-26.33-3.79,151.18,151.18,0,0,1-25.89-7.47,82.67,82.67,0,0,1-23.92-14,57.72,57.72,0,0,1-9.65-10.72,58.67,58.67,0,0,1-6.66-12.89c-1.69-4.46-2.81-9.11-3.92-13-.28-1-.57-1.87-.86-2.61a5.69,5.69,0,0,0-.76-1.47c0-.06-.06-.06-.07-.05l-.54-.61-.75-.88-.69-.93a22.84,22.84,0,0,1-2.3-4,26.68,26.68,0,0,1-2.16-8.52,36.22,36.22,0,0,1,.22-8.12,48.89,48.89,0,0,1,1.63-7.52c.36-1.21.76-2.41,1.2-3.59.22-.59.45-1.18.7-1.78l.39-.9.21-.47.27-.56Z" transform="translate(-5.28 -8.32)"/><path class="cls-1" d="M350.53,495.09a66.71,66.71,0,0,0,7.06,11.07,72.19,72.19,0,0,0,9,9.71,66.41,66.41,0,0,0,10.62,7.84,58.08,58.08,0,0,0,12.06,5.3,60.81,60.81,0,0,0,13,2.3l3.3,0,1.65,0,1.65-.12,3.29-.23c1.09-.13,2.18-.32,3.27-.48a83.58,83.58,0,0,0,25-8.56,152.24,152.24,0,0,0,22.33-14.41,85.26,85.26,0,0,0,9.82-8.8,37.86,37.86,0,0,0,7.31-10.41,14.06,14.06,0,0,0,1.27-5.68,7.72,7.72,0,0,0-1.72-4.91,10.33,10.33,0,0,0-4.51-3.06,16.64,16.64,0,0,0-16.3,3.27,12.41,12.41,0,0,0-3.06,4.56,15.81,15.81,0,0,0-1,5.55l-6-.2a21.59,21.59,0,0,1,1.76-7.54,18.29,18.29,0,0,1,4.65-6.33,21.1,21.1,0,0,1,14.13-5,20.79,20.79,0,0,1,7.42,1.43,14.77,14.77,0,0,1,6.32,4.64,11.93,11.93,0,0,1,1.89,3.62,12.77,12.77,0,0,1,.56,4,18.08,18.08,0,0,1-1.81,7.31,41.46,41.46,0,0,1-8.37,11.28,99.39,99.39,0,0,1-10.42,8.89,155.19,155.19,0,0,1-23.08,14.28,88.71,88.71,0,0,1-25.85,8.37c-1.13.16-2.25.35-3.38.48l-3.42.22-1.71.11-1.71,0-3.42-.07a63,63,0,0,1-13.45-2.47,67,67,0,0,1-12.53-5.45,68.67,68.67,0,0,1-11.07-8,81.57,81.57,0,0,1-17.17-21.2Z" transform="translate(-5.28 -8.32)"/><path class="cls-6" d="M434.24,524.79c8.55-.89,17.12-2.08,25.62-3.46s17-3,25.36-5A187.77,187.77,0,0,0,509.86,509a74.8,74.8,0,0,0,11.46-5.49c3.56-2.16,7-4.79,8.86-8.18h0l.43-.75.89,0q6.63-.25,13.23-1.08c4.4-.58,8.78-1.26,13.14-2.1s8.7-1.78,13-2.82,8.63-2.18,12.81-3.43h0l.83-.21.68.18c.88.23,2,.45,3,.64s2.1.33,3.15.46a58.89,58.89,0,0,0,6.38.4A47,47,0,0,0,610.36,485a34.59,34.59,0,0,0,5.93-2.16c1-.42,1.87-1,2.8-1.46s1.79-1.1,2.62-1.75a32.24,32.24,0,0,0,8.48-9.39h0l.2-.38.53-.27a24.2,24.2,0,0,1,8.53-2.15c2.83-.25,5.63-.37,8.37-.37a155.41,155.41,0,0,0,16-.65c1.28-.17,2.58-.3,3.83-.57.63-.13,1.26-.22,1.88-.37l1.83-.48a14.62,14.62,0,0,0,1.8-.56l1.78-.59,1.7-.74a11.88,11.88,0,0,0,1.66-.8,31.56,31.56,0,0,0,10.94-9.71,53.09,53.09,0,0,0,6.63-13.81,105.3,105.3,0,0,0,3.62-15.45A260,260,0,0,0,702,391.06h0l1,1.37-42-14h0l1.29-.16a118.38,118.38,0,0,1-14,9.36,69.93,69.93,0,0,1-7.71,3.85,27,27,0,0,1-4.37,1.46,12.89,12.89,0,0,1-2.72.34l-.86-.06a9.27,9.27,0,0,1-1-.21,6.14,6.14,0,0,1-1.15-.52,4.44,4.44,0,0,1-1.11-1,6.61,6.61,0,0,1-.44-.64,4.85,4.85,0,0,1-.28-.64,4.55,4.55,0,0,1-.2-.64c0-.19-.06-.37-.08-.56a4.91,4.91,0,0,1,0-.55l0-.46a5.06,5.06,0,0,1,.11-.85l.17-.75.21-.65c.14-.45.31-.81.47-1.2a32.3,32.3,0,0,1,2.22-4c1.59-2.47,3.31-4.75,5.06-7,3.52-4.44,7.23-8.64,11-12.78s7.66-8.13,11.56-12.11l2.94-3c1-1,1.88-2,2.82-3l2.8-3,1.4-1.49,1.31-1.57a131.84,131.84,0,0,0,18.29-27.09A127.15,127.15,0,0,0,701.91,246a158.8,158.8,0,0,0-10-48.23,130,130,0,0,0-6.69-15l2.61-1.48a132.4,132.4,0,0,1,6.93,15.39c2,5.24,3.71,10.58,5.18,16a157.47,157.47,0,0,1,5.41,33.16,134.16,134.16,0,0,1-12.82,65.62,141.81,141.81,0,0,1-18.23,28.44L673,341.52l-1.4,1.58-2.83,3.15c-.95,1-1.88,2.12-2.84,3.12l-2.86,3q-5.69,6-11.21,12.21c-3.68,4.1-7.32,8.24-10.68,12.52-1.67,2.14-3.29,4.31-4.7,6.51a26.9,26.9,0,0,0-1.78,3.25,7.42,7.42,0,0,0-.29.74l-.11.34-.05.26a.45.45,0,0,0,0,.18.29.29,0,0,1,0,.06s0,0,0,0a.08.08,0,0,0,0,0,1.32,1.32,0,0,0,0-.15,1.08,1.08,0,0,0-.09-.16.71.71,0,0,0-.14-.22c-.14-.11-.2-.24-.35-.29a.4.4,0,0,0-.2-.09s0,0,0,0l.18,0a7.54,7.54,0,0,0,1.41-.17,30,30,0,0,0,3.56-1.08c2.46-.89,4.92-2,7.39-3.17,4.93-2.33,9.84-4.88,14.77-7.35l.73-.37.55.21h0l42,14,1,.33,0,1h0a169,169,0,0,1,.19,33.18A95,95,0,0,1,702,440.72a54.23,54.23,0,0,1-7.24,15.76,39.19,39.19,0,0,1-5.9,6.73l-1.71,1.48c-.58.48-1.23.87-1.85,1.31s-1.23.89-1.9,1.23l-2,1.07a16.27,16.27,0,0,1-2,1l-2.07.86a43.65,43.65,0,0,1-4.26,1.25l-2.15.47c-.72.14-1.44.23-2.16.34-1.44.25-2.87.33-4.3.47a116.08,116.08,0,0,1-16.75-.48c-2.72-.2-5.39-.45-8-.5a24.07,24.07,0,0,0-7.54.71l.73-.65h0A35.65,35.65,0,0,1,624,482.62c-.89.78-1.87,1.44-2.83,2.13s-2,1.28-3,1.82a38.92,38.92,0,0,1-6.49,2.79,51.88,51.88,0,0,1-13.8,2.48,64.38,64.38,0,0,1-7,0c-1.17-.08-2.33-.17-3.5-.31s-2.29-.29-3.59-.55l1.52,0h0c-4.47,1.06-8.87,1.95-13.33,2.76s-8.91,1.51-13.39,2.11-9,1-13.5,1.37-9.05.42-13.59.33l1.32-.78h0c-2.4,4.21-6.17,7-9.94,9.31A77.7,77.7,0,0,1,511,511.74a190.64,190.64,0,0,1-25,7.52c-8.47,2-17,3.63-25.57,5s-17.15,2.58-25.82,3.49Z" transform="translate(-5.28 -8.32)"/><path class="cls-10" d="M449,582.37l-1-12-1-11.8,8.61,8.2c.41.39,1,.94,1.57,1.4s1.15,1,1.74,1.41c1.19.92,2.41,1.81,3.66,2.65a57.8,57.8,0,0,0,7.8,4.43,37.73,37.73,0,0,0,16.69,3.89,28,28,0,0,0,15.63-5.23,47.59,47.59,0,0,0,12-12.81l1.12-1.68,1.88-.27h0a29.79,29.79,0,0,1,10.49.11,81,81,0,0,1,9.22,2.24c5.82,1.72,11.29,3.47,16.77,4.56a65.43,65.43,0,0,0,16.31,1.39A63.44,63.44,0,0,0,586.48,566c10.42-3.22,20.24-8.84,29.38-15.49a210.63,210.63,0,0,0,25.8-22.6l-1.84,2.6h0a87.73,87.73,0,0,0,9.33-16.93,63.28,63.28,0,0,0,2.93-9,40.16,40.16,0,0,0,1.21-9.22,23.16,23.16,0,0,0-1.45-8.8,14.61,14.61,0,0,0-5.28-6.81,18,18,0,0,0-8.61-3,30.62,30.62,0,0,0-9.63.72l-.64-2.64a40.78,40.78,0,0,1,10.44-1.37A23.29,23.29,0,0,1,648.77,476a20.61,20.61,0,0,1,8.1,8,31.89,31.89,0,0,1,3.57,10.69,71.44,71.44,0,0,1-.59,21.75,212.94,212.94,0,0,1-4.67,21h0l-.78,1.64-1.05,1a226.2,226.2,0,0,1-29.07,22.73c-10.42,6.73-21.82,12.52-34.34,15.66a75.89,75.89,0,0,1-19.21,2.33,77,77,0,0,1-19-2.66c-6.1-1.58-11.85-3.79-17.32-5.74s-10.74-3.56-15.18-3h0l3-1.94a56.45,56.45,0,0,1-14.37,15.21,38.56,38.56,0,0,1-9.72,4.94,36.22,36.22,0,0,1-10.83,1.89,46.65,46.65,0,0,1-20.7-4.72,66.78,66.78,0,0,1-9-5.11q-2.14-1.44-4.18-3c-.68-.53-1.35-1.07-2-1.64s-1.28-1.1-2-1.82l7.62-3.6,1,12Z" transform="translate(-5.28 -8.32)"/><path class="cls-10" d="M431.82,527.21c3.68,7.41,7.26,14.87,10.83,22.34s7,15,10.57,22.45l10.35,22.55,5.09,11.31c1.66,3.79,3.35,7.56,5,11.36l.73,1.71-.68,1.75h0c-.71,1.84-1.41,3.93-2,5.92s-1.1,4-1.48,6a29.32,29.32,0,0,0-.6,5.75c0,.45.05.84.07,1.26s.13.73.17,1.1l0,.13.08.39.09.47.05.55a7,7,0,0,1,0,1.22,6.36,6.36,0,0,1-.34,1.42,6.1,6.1,0,0,1-1.69,2.5,6.84,6.84,0,0,1-2,1.24,10,10,0,0,1-2.94.69,17.48,17.48,0,0,1-2.26.05A32,32,0,0,1,457,649c-2.43-.4-4.71-.94-7-1.54-4.5-1.22-8.76-2.62-13.13-4.24l-1-.36-.74-.8c-2.64-2.84-5.39-5.69-8.16-8.37-1.37-1.32-2.8-2.66-4.11-3.71a10.49,10.49,0,0,0-.86-.64l-.17-.12c-.06,0,0,0,0,0l.12,0h0l-.19-.08-.5-.23a6.55,6.55,0,0,1-.93-.58,8.33,8.33,0,0,1-.9-.87,7.8,7.8,0,0,1-.51-.68l-.22-.33-.15-.26-.29-.53-.45-.94-.35-.86a57,57,0,0,1-1.9-6.24c-.51-2-1-4-1.38-6-.84-4-1.56-7.93-2.23-12l1.22,2.43c-10.94-11.25-21.73-22.57-32.39-34.09-5.32-5.76-10.6-11.57-15.79-17.51-2.59-3-5.16-6-7.67-9.09-1.26-1.56-2.5-3.13-3.72-4.8-.61-.81-1.21-1.72-1.82-2.6l-.9-1.46c-.31-.53-.62-1.18-.91-1.78l8.28-3.54.44.82.64,1c.51.73,1,1.46,1.55,2.2,1.08,1.48,2.26,3,3.46,4.46,2.4,3,4.91,5.91,7.45,8.83,5.1,5.84,10.33,11.59,15.61,17.32,10.58,11.43,21.36,22.74,32.22,33.9l1,1,.23,1.41c.63,3.82,1.35,7.72,2.15,11.52.4,1.9.83,3.8,1.3,5.64a49.22,49.22,0,0,0,1.56,5.19l.21.52.19.41.07.12,0,.06v0s0,0-.07-.08a1.64,1.64,0,0,0-.38-.35,2.85,2.85,0,0,0-.61-.39l-.34-.14-.09,0h0l.1,0,.79.35c.24.12.57.28.71.38l.45.29a18.79,18.79,0,0,1,1.54,1.13c1.79,1.44,3.26,2.85,4.76,4.28,3,2.87,5.73,5.75,8.52,8.74l-1.71-1.16c4,1.47,8.18,2.85,12.27,4,2,.55,4.1,1,6.06,1.35a23.34,23.34,0,0,0,2.76.3,8.73,8.73,0,0,0,1.08,0c.28,0,.46-.09.3,0a2.15,2.15,0,0,0-.56.37,3,3,0,0,0-.76,1.13,2.58,2.58,0,0,0-.14.61,2.16,2.16,0,0,0,0,.39.69.69,0,0,0,0,.13.24.24,0,0,0,0,.06v0h0V643l-.05-.28a21.26,21.26,0,0,1-.35-2.19c0-.69-.12-1.41-.11-2.07a38,38,0,0,1,.75-7.51c.45-2.38,1-4.67,1.69-6.92s1.38-4.41,2.28-6.72h0l0,3.46c-1.65-3.79-3.24-7.61-4.86-11.41l-4.75-11.46-9.32-23c-3-7.7-6.12-15.37-9.1-23.08s-6-15.43-8.85-23.19Z" transform="translate(-5.28 -8.32)"/><path class="cls-1" d="M478.92,473.69c4.59-2.91,9.26-5.63,14-8.27s9.55-5.15,14.52-7.42c2.48-1.13,5-2.21,7.6-3.18a46.44,46.44,0,0,1,8.18-2.34,14.34,14.34,0,0,1,4.85-.07c.47.13,1,.3,1.42.45l.82.33c.56.21,1.15.4,1.75.57a53.65,53.65,0,0,0,7.57,1.49,80.8,80.8,0,0,0,15.64.52,30.77,30.77,0,0,0,7.3-1.27,7.54,7.54,0,0,0,1.38-.62,3.87,3.87,0,0,0,.46-.31.71.71,0,0,1,.1-.11l0,0,.16-.18.38-.38a3.57,3.57,0,0,1,.9-.63,3.42,3.42,0,0,1,1-.39l.51-.12c.16,0,.31,0,.46,0a4.88,4.88,0,0,1,.87,0,9.9,9.9,0,0,1,2.63.67c2.87,1.19,5.06,2.61,7.4,3.81a36.5,36.5,0,0,0,7,2.93,20.59,20.59,0,0,0,3.54.65,16.32,16.32,0,0,0,3.53-.14,16.81,16.81,0,0,0,6.66-2.82h0l1.19-.87.94,1.12a28.7,28.7,0,0,0,5.59,5.35,33.22,33.22,0,0,0,6.85,3.78,45.39,45.39,0,0,0,15.37,3.29v3a47,47,0,0,1-8.43-1A47.5,47.5,0,0,1,613,469a36.22,36.22,0,0,1-7.46-4.12,31.69,31.69,0,0,1-6.21-6l2.13.26h0a18.69,18.69,0,0,1-7.72,4.25,19.15,19.15,0,0,1-8.95,0,36.08,36.08,0,0,1-8.05-3c-1.25-.61-2.47-1.25-3.65-1.85a35.13,35.13,0,0,0-3.38-1.62,5.33,5.33,0,0,0-1.27-.34c-.1,0-.09,0-.14,0h0s0,0,.08,0,.06-.06.08-.05l0,0s0,0,0,0l-.14.16c-.19.21-.4.42-.6.61a8.62,8.62,0,0,1-1.2.84,12.38,12.38,0,0,1-2.3,1,35.19,35.19,0,0,1-8.58,1.46A85.5,85.5,0,0,1,539,460a58.19,58.19,0,0,1-8.26-1.7c-.69-.21-1.39-.44-2.08-.7l-1.05-.43a3.27,3.27,0,0,1-.5-.17,10.21,10.21,0,0,0-3.19,0,42.33,42.33,0,0,0-7.38,1.94c-2.48.85-4.94,1.84-7.38,2.89-9.75,4.25-19.32,9.21-28.67,14.42Z" transform="translate(-5.28 -8.32)"/><path class="cls-11" d="M654.5,514s11-14,16-13,37-4,37-42c15-8,14-15,20-38,7-25,15-36,10-61,23-71-15-134-24-145-10.55-27.76-33.71-37.82-28-35,0,0-21-30-36-36-6-7-39-48-60-46-5-8-16-29-52-33-16-24-50-28-50-28s-61-27-95-13c-8,0-10-9-38-4-29-15-57,2-57,2s-38-3-47-2-82,31-90,43c-6.47,9.7-6,14-6,14s-19-3-51,28c-9.42,5.95-19,15-25,33-19,14-19,23.39-20,36-25,2-40,57-40,57s-25,69,15,83c12,16,18,45,46,63,.47,6.62,1,26,19,43,8,21,27.08,40.36,64,43,11,16,33,45,76-12,26-25,46-20,46-20l6-11.5" transform="translate(-5.28 -8.32)"/><path class="cls-2" d="M364.06,353.43c-7.92-2.35-15.72-4.93-23.48-7.72s-15.44-5.81-23-9.34a112.64,112.64,0,0,1-11.09-5.9c-.91-.54-1.79-1.17-2.68-1.75s-1.76-1.24-2.6-2a19.24,19.24,0,0,1-4.7-5.2l-.25-.41-.18-.36-.35-.71-.7-1.42-1.32-2.88c-.83-1.95-1.63-3.91-2.3-5.94a64,64,0,0,1-1.77-6.18c-.23-1.06-.46-2.12-.62-3.2-.09-.54-.16-1.09-.23-1.65s-.12-1.07-.14-1.81l0-1.86,1.86-.77h0a63.48,63.48,0,0,0,6.95-2.93,54.9,54.9,0,0,0,6.57-3.77,30.67,30.67,0,0,0,5.63-4.8,14,14,0,0,0,3.37-6.11h0l.25-1,.9-.19a41.47,41.47,0,0,1,5.83-.66c1.88-.12,3.73-.24,5.53-.48a21,21,0,0,0,9.85-3.44,16.68,16.68,0,0,0,5.85-8.35A38.29,38.29,0,0,0,343,251.95l0-.64.46-.41a12.79,12.79,0,0,1,4.63-2.59,19.76,19.76,0,0,1,5-.86,34.1,34.1,0,0,1,9.74,1.1h0l-1.73.83a16,16,0,0,1,7.72-8.17,25.63,25.63,0,0,1,10.84-2.42,46.26,46.26,0,0,1,10.79,1.12,52.52,52.52,0,0,1,5.24,1.42,34.49,34.49,0,0,1,5.2,2.14h0l-2.72-.09,35.61-15.72h0l-.6.52a140.35,140.35,0,0,0,8-14.32,107.42,107.42,0,0,0,6.07-15.18,52.11,52.11,0,0,0,2.59-15.84,24.7,24.7,0,0,0-1.34-7.66,16.53,16.53,0,0,0-4-6.37A72.83,72.83,0,0,0,438,164c-2.28-1.54-4.53-3.12-6.85-4.6-4.6-3-9.31-5.88-14.06-8.67-9.52-5.54-19.29-10.73-29.25-15.34l-.63-.29-.19-.64c-2.36-8.06-4.41-16.16-6.16-24.37a159.31,159.31,0,0,1-3.58-25,54.75,54.75,0,0,1,.08-6.42,24.27,24.27,0,0,1,1.26-6.53c.21-.54.48-1.08.72-1.62s.68-1.06,1-1.54c.76-.8,1.46-1.67,2.26-2.4a38.15,38.15,0,0,1,5.09-4,65.92,65.92,0,0,1,11.31-6,91.17,91.17,0,0,1,12.08-4l.69,2.92A76.11,76.11,0,0,0,389.44,65a35.18,35.18,0,0,0-4.7,3.72c-.74.66-1.34,1.43-2,2.14-.26.36-.48.69-.71,1.06s-.38.81-.55,1.23a21.47,21.47,0,0,0-1.08,5.72,51.81,51.81,0,0,0-.07,6.07,156.58,156.58,0,0,0,3.52,24.48c1.72,8.1,3.77,16.18,6.1,24.12l-.82-.93c10.13,4.69,19.92,9.89,29.53,15.48,4.79,2.81,9.55,5.69,14.19,8.75,2.34,1.5,4.62,3.09,6.93,4.65l3.4,2.41a32.48,32.48,0,0,1,3.41,2.72,19.54,19.54,0,0,1,4.78,7.5,27.69,27.69,0,0,1,1.52,8.61,55,55,0,0,1-2.72,16.78,110.38,110.38,0,0,1-6.24,15.61,143,143,0,0,1-8.16,14.67l-.21.33-.38.19h0l-34.37,18.27-1.23.65-1.49-.74h0a29.06,29.06,0,0,0-4.2-2.06,47.25,47.25,0,0,0-4.61-1.6,41.57,41.57,0,0,0-9.58-1.67,21.68,21.68,0,0,0-9.24,1.37,12.7,12.7,0,0,0-6.56,6.07l-.57,1.13-1.15-.3h0a31.17,31.17,0,0,0-8.86-1,16.79,16.79,0,0,0-4.23.72,9.82,9.82,0,0,0-3.52,1.95l.49-1.05a41.2,41.2,0,0,1-1.92,11.54,19.69,19.69,0,0,1-6.93,9.81,23.89,23.89,0,0,1-11.22,4c-1.93.25-3.85.37-5.72.5a39.27,39.27,0,0,0-5.38.59l1.15-1.22h0a17.21,17.21,0,0,1-3.49,7.92,34.55,34.55,0,0,1-5.89,6,59.48,59.48,0,0,1-6.77,4.68,68.21,68.21,0,0,1-7.32,3.82h0l1.81-2.63c0,.28,0,.83.07,1.26s.09.93.16,1.4c.12.94.29,1.9.48,2.85a58.63,58.63,0,0,0,1.47,5.69c.57,1.89,1.27,3.74,2,5.59l1.17,2.75.63,1.36.31.68.16.33.15.25a14.68,14.68,0,0,0,3.45,3.93c.68.64,1.5,1.2,2.25,1.8s1.59,1.15,2.43,1.68a108.35,108.35,0,0,0,10.48,5.93c7.24,3.63,14.77,6.81,22.37,9.79s15.32,5.75,23.07,8.28Z" transform="translate(-5.28 -8.32)"/><path class="cls-2" d="M444.44,164.52c3.08-.72,6.28-1.65,9.39-2.64s6.2-2.13,9.23-3.37a80.94,80.94,0,0,0,17.12-9.26,38.62,38.62,0,0,0,7-6.45,23.25,23.25,0,0,0,4.54-8.11,19.29,19.29,0,0,0,.43-9.23,31.24,31.24,0,0,0-3.57-8.89l1.75-1.1a33.48,33.48,0,0,1,4.29,9.44,22.09,22.09,0,0,1,0,10.58,26.47,26.47,0,0,1-4.72,9.48,42.27,42.27,0,0,1-7.35,7.41A85.23,85.23,0,0,1,465,163q-4.63,2.17-9.42,4c-3.21,1.2-6.37,2.29-9.76,3.25Z" transform="translate(-5.28 -8.32)"/><path class="cls-12" d="M421.5,67s24,46,24,60c6,8,18.61,22.39,16.3,34.7" transform="translate(-5.28 -8.32)"/><path class="cls-10" d="M302.7,28.52c-9.17,3.75-18.28,7.7-27.31,11.78s-18,8.32-26.82,12.79S231,62.24,222.67,67.43a128.1,128.1,0,0,0-12,8.35,53,53,0,0,0-5.29,4.77,16.15,16.15,0,0,0-3.57,5.26l-.23.68L201,87h0c-8.22,6.32-16.54,12.28-24.08,19A175.33,175.33,0,0,0,156,128,260.78,260.78,0,0,0,138.5,152.9c-1.36,2.14-2.75,4.33-4,6.47a55.61,55.61,0,0,0-3.36,6.28,13.13,13.13,0,0,0-.89,2.77,10.76,10.76,0,0,0-.11,2.71c.15,2,.65,4.64,1,7.23l.32,2.09-1.55,1.76h0a59.39,59.39,0,0,0-4.83,6.29c-1.54,2.26-3,4.61-4.36,7a106.78,106.78,0,0,0-7.09,14.85,63.61,63.61,0,0,0-4,15.39c-.56,5.08-.12,10,1.8,13.89l1.19,2.38-1.47,2.85h0A13.49,13.49,0,0,0,110,247.5c-.37,1.1-.7,2.3-1,3.54-.59,2.48-1.06,5.08-1.46,7.72-.8,5.28-1.32,10.69-1.71,16.12-.76,10.87-.95,21.84-.68,32.77a268.38,268.38,0,0,0,2.63,32.55,111,111,0,0,0,3.38,15.58,41.89,41.89,0,0,0,2.75,7c1.06,2.07,2.49,3.86,3.55,4.41h0l1.91,1.16.36,2a23.36,23.36,0,0,0,3,8.07,27.73,27.73,0,0,0,5.76,6.69A52.07,52.07,0,0,0,145,394a106.66,106.66,0,0,0,19.12,4.63c3.27.5,6.57.89,9.88,1.16,1.65.14,3.31.24,4.95.31.82,0,1.65.06,2.42.07.35,0,.49,0,.72,0l.64,0,1.29.07,82.26,4.4h0l1.25.18.34.16,42,20.37-1,2.55L264.1,414.93l1.59.34h0l-82-5.32-2.48-.16c-.94,0-1.82-.06-2.72-.11-1.78-.1-3.55-.23-5.31-.4q-5.29-.49-10.53-1.35a115.79,115.79,0,0,1-20.74-5.29,60.86,60.86,0,0,1-19.26-10.86,36.58,36.58,0,0,1-7.48-8.93,32.14,32.14,0,0,1-4-11.15l2.26,3.14h0A14.86,14.86,0,0,1,109,371.1a25.67,25.67,0,0,1-2.79-4.17,50.44,50.44,0,0,1-3.53-8.42,119.73,119.73,0,0,1-4-16.84A277.61,277.61,0,0,1,95.37,308c-.47-11.24-.48-22.47.11-33.75.3-5.64.75-11.29,1.51-17,.38-2.85.84-5.72,1.49-8.65.33-1.47.7-2.95,1.19-4.49a23.69,23.69,0,0,1,2.15-5h0l-.28,5.23a30.83,30.83,0,0,1-2.64-10.09,43.48,43.48,0,0,1,.26-9.81,73.79,73.79,0,0,1,5-17.84,116.68,116.68,0,0,1,8.14-16.07c1.55-2.56,3.19-5.07,4.94-7.52a67.89,67.89,0,0,1,5.86-7.24h0l-1.23,3.85c-.27-2.51-.7-5-.83-8.1a19.7,19.7,0,0,1,.44-5,22,22,0,0,1,1.61-4.52,63.26,63.26,0,0,1,4.17-7.19c1.45-2.23,2.9-4.33,4.38-6.49a268.34,268.34,0,0,1,18.93-24.93,181.91,181.91,0,0,1,22.42-22C181,94.73,189.72,89,198,83h0l-.85,1.15A20.45,20.45,0,0,1,202,77.31a57.31,57.31,0,0,1,5.91-5,132.11,132.11,0,0,1,12.69-8.23c8.67-5,17.6-9.45,26.62-13.67s18.14-8.17,27.32-12S293,31,302.3,27.48Z" transform="translate(-5.28 -8.32)"/><path class="cls-8" d="M511.73,227.67a161.55,161.55,0,0,1,6.24-24c1.35-3.91,2.87-7.78,4.58-11.57A94.18,94.18,0,0,1,528.41,181,70.42,70.42,0,0,1,536,170.73a47.11,47.11,0,0,1,10.1-8.44,34.43,34.43,0,0,1,12.71-4.77,40.38,40.38,0,0,1,13.62.34l-1.88,8.27a32.27,32.27,0,0,0-10.65-.82,26.85,26.85,0,0,0-10.18,3.26,40.15,40.15,0,0,0-8.91,6.74,64.15,64.15,0,0,0-7.35,9,88.5,88.5,0,0,0-6,10.19c-1.81,3.54-3.46,7.18-5,10.9a157.72,157.72,0,0,0-7.21,22.94Z" transform="translate(-5.28 -8.32)"/><line class="cls-13" x1="540.22" y1="134.18" x2="550.31" y2="153.86"/><path class="cls-4" d="M477.62,114.79a50.46,50.46,0,0,1,7.3-4.24,55.55,55.55,0,0,1,7.83-3,43.91,43.91,0,0,1,16.82-1.84,39.16,39.16,0,0,1,8.4,1.81,40,40,0,0,1,7.78,3.67,51,51,0,0,1,12.62,11.4h0l-3.56-.22c3.38-3.27,6.75-6.6,10.3-9.81a85.68,85.68,0,0,1,11.4-8.92A41.55,41.55,0,0,1,570,97.82a40.18,40.18,0,0,1,14.66-.31l-.42,3a36.94,36.94,0,0,0-13.46.69,37.9,37.9,0,0,0-12.19,5.66,81.73,81.73,0,0,0-10.58,8.84c-3.35,3.23-6.59,6.63-9.88,10l-1.78,1.84-1.78-2.06h0a46.53,46.53,0,0,0-11.18-10.67,35.83,35.83,0,0,0-6.85-3.46,35.17,35.17,0,0,0-7.46-1.82,40.26,40.26,0,0,0-15.44,1.29,52.22,52.22,0,0,0-7.43,2.66,47.84,47.84,0,0,0-6.89,3.75Z" transform="translate(-5.28 -8.32)"/><path class="cls-7" d="M723.5,371s-10,19-20,20" transform="translate(-5.28 -8.32)"/><path class="cls-7" d="M701.44,429.6s13.06,6.4,20.06.4" transform="translate(-5.28 -8.32)"/><path class="cls-4" d="M490.69,108.82c-.4-2.39.24-4.38.82-6.4a46.09,46.09,0,0,0,1.18-6.22,41.91,41.91,0,0,0-.39-12.59,42.56,42.56,0,0,0-4.08-11.92,51,51,0,0,0-7.29-10.48c-.7-.82-1.49-1.55-2.23-2.34l-1.13-1.16-1.21-1.08c-.82-.71-1.6-1.46-2.44-2.15l-2.58-2c-.84-.7-1.74-1.31-2.65-1.93L466,48.67c-1.89-1.13-3.73-2.33-5.66-3.39A159.72,159.72,0,0,0,436,34.43l.92-2.86,6.5,2c2.16.7,4.27,1.54,6.42,2.31,1.08.37,2.12.82,3.17,1.27l3.15,1.33c1.06.42,2.09.93,3.12,1.43l3.09,1.5a82,82,0,0,1,22.35,16.29,50.43,50.43,0,0,1,13.07,24.88,47.55,47.55,0,0,1,.51,14.26,51.76,51.76,0,0,1-1.3,7c-.58,2.31-1.36,4.62-3.66,6.3Z" transform="translate(-5.28 -8.32)"/><path class="cls-9" d="M441.5,65s47,15.57,42.48,47.78" transform="translate(-5.28 -8.32)"/><path class="cls-4" d="M473.8,58.26a18.25,18.25,0,0,1,1.53,2.82,21.26,21.26,0,0,1,1.06,3,17.61,17.61,0,0,1,.48,6.61,16.69,16.69,0,0,1-2.2,6.59,20.09,20.09,0,0,1-2,2.88c-.73.9-1.56,1.66-2.36,2.5l-4.92-6.52c.62-.43,1.34-.81,1.94-1.28A13.13,13.13,0,0,0,469,73.36a10.46,10.46,0,0,0,2.38-3.82,12.58,12.58,0,0,0,.74-4.77,17.28,17.28,0,0,0-.29-2.56,15.8,15.8,0,0,0-.66-2.46Z" transform="translate(-5.28 -8.32)"/><path class="cls-9" d="M555.5,79s8.77,12,8.89,22.49" transform="translate(-5.28 -8.32)"/><path class="cls-10" d="M274.9,244.47a47.87,47.87,0,0,0,3.13,5.77,59.14,59.14,0,0,0,3.83,5.4,53.5,53.5,0,0,0,9.32,9.19,43.17,43.17,0,0,0,23.65,8.92l-.65,6.52a48.84,48.84,0,0,1-26-11.74A57.83,57.83,0,0,1,278.74,258a62.81,62.81,0,0,1-3.68-6,50.46,50.46,0,0,1-3-6.43Z" transform="translate(-5.28 -8.32)"/><path class="cls-10" d="M342.88,256.33c-4.92-3.56-10-7.06-15.08-10.31-2.56-1.62-5.15-3.2-7.76-4.53-.65-.32-1.3-.63-1.93-.88a6.94,6.94,0,0,0-1.55-.48h-.05l-.23,0-.49-.05a5.85,5.85,0,0,1-.78-.17c-.5-.12-.87-.28-1.3-.42-.79-.31-1.53-.64-2.26-1-5.71-2.78-10.93-6-16.2-9.23s-10.42-6.58-15.56-10h0l.51.21a14.69,14.69,0,0,0-1.59-.17c-.56-.06-1.13,0-1.7,0s-1.15,0-1.72.07a14.7,14.7,0,0,0-1.72.17,36.55,36.55,0,0,0-6.78,1.51,47.63,47.63,0,0,0-12.47,6.33c-1,.69-1.92,1.37-2.86,2.08l-2.69,2.31c-.45.39-.9.76-1.34,1.16l-1.25,1.26-2.5,2.52c-1.59,1.76-3.09,3.6-4.63,5.41l-4.2,5.77-2.48-1.68,4.33-5.94c1.59-1.87,3.14-3.78,4.79-5.6L244,232l1.3-1.31c.46-.42.93-.81,1.4-1.21l2.81-2.41c1-.75,2-1.46,3-2.18a50.61,50.61,0,0,1,13.27-6.73,39.53,39.53,0,0,1,7.34-1.63,16.88,16.88,0,0,1,1.88-.18c.63,0,1.26-.1,1.9-.08s1.27,0,1.92.05a16.61,16.61,0,0,1,2,.23l.25,0,.25.16h0q7.8,4.84,15.75,9.46c5.29,3,10.65,6.11,16.07,8.54a12.06,12.06,0,0,0,3.62,1.16,7.37,7.37,0,0,1,1.61.28c.45.13.88.26,1.27.42.81.3,1.55.63,2.29,1,2.91,1.37,5.61,2.92,8.29,4.51,5.35,3.19,10.51,6.55,15.65,10Z" transform="translate(-5.28 -8.32)"/><path class="cls-4" d="M407.87,183.84l-20,4-.76.15-.65-.43h0a114.28,114.28,0,0,0-19.76-9.48,47.92,47.92,0,0,0-10.29-2.55,21.17,21.17,0,0,0-4.95,0c-.4,0-.77.13-1.15.19l-1.52.28c-.54.09-1.08.13-1.63.19s-1.09,0-1.63,0a28.55,28.55,0,0,1-6.15-.83c-1.91-.44-3.67-.93-5.33-1.23a14.9,14.9,0,0,0-4.64-.18,12.73,12.73,0,0,0-4.24,1.48,20.77,20.77,0,0,0-4,2.89,40.78,40.78,0,0,0-3.65,3.73c-2.43,2.63-4,5.88-7.47,8L306.94,188c.74-4.09,3.53-6.9,6-9.92a46.75,46.75,0,0,1,4.22-4.26,26.68,26.68,0,0,1,5.11-3.64,18,18,0,0,1,6.33-2.1,20.8,20.8,0,0,1,6.52.32c2,.41,3.85,1,5.58,1.38a25.19,25.19,0,0,0,4.93.79c.39,0,.78,0,1.18,0s.78,0,1.16-.11l1.25-.2c.54-.08,1.09-.2,1.62-.23a26.57,26.57,0,0,1,6.24.2,52.54,52.54,0,0,1,11.35,3.23,96.61,96.61,0,0,1,10.36,5,104.44,104.44,0,0,1,9.73,6h0l-1.41-.28,20-4Z" transform="translate(-5.28 -8.32)"/><path class="cls-4" d="M322.23,224.79a24.55,24.55,0,0,1-2.44-5.62,15.78,15.78,0,0,1-.66-6.24l.11-.81c0-.27.13-.54.2-.81a8.52,8.52,0,0,1,.55-1.58l.16-.39.05-.17a.93.93,0,0,0,.08-.36,1.68,1.68,0,0,0,0-.46,2.44,2.44,0,0,0-.07-.53,9.6,9.6,0,0,0-.81-2.33,22.86,22.86,0,0,0-1.29-2.36,69.85,69.85,0,0,0-6.82-8.87c-2.5-2.82-5.13-5.57-7.83-8.18h0l.36.25c-6.12-2.5-12.29-5-18.45-7.31s-12.38-4.54-18.62-6.23a55.46,55.46,0,0,0-9.2-1.76,10.91,10.91,0,0,0-3.78.25c-.28,0-.34.16-.5.21a1.64,1.64,0,0,0-.38.24l-.47.33c-.63.42-1.23.9-1.85,1.37-4.88,3.82-9.36,8.6-13.81,13.36h0l-.23.3-.24.16a40.39,40.39,0,0,0-13.48,15.24,27.24,27.24,0,0,0-2.72,9.73c-.11.78-.17,1.84-.35,2.8a11.89,11.89,0,0,1-1,2.91,11.49,11.49,0,0,1-4.08,4.5,29,29,0,0,1-5,2.53c-1.67.69-3.32,1.33-4.88,2.05a22.28,22.28,0,0,0-8.08,5.81,22.59,22.59,0,0,0-4.38,8.94A47.59,47.59,0,0,0,191,252l-3-.09A50.53,50.53,0,0,1,189.44,241a25.58,25.58,0,0,1,5-10.11,25.28,25.28,0,0,1,9.13-6.61c3.33-1.56,6.81-2.58,9.51-4.35a8.47,8.47,0,0,0,3-3.31,8.9,8.9,0,0,0,.7-2.16c.14-.78.18-1.51.31-2.51a30.24,30.24,0,0,1,3-10.77,39.82,39.82,0,0,1,6.23-9.18,45.49,45.49,0,0,1,8.36-7.3l-.47.47h0a47,47,0,0,1,5.36-8.83,46.26,46.26,0,0,1,7.19-7.61c.68-.57,1.38-1.13,2.13-1.64l.55-.39a4.43,4.43,0,0,1,.67-.43,7.92,7.92,0,0,1,1.78-.78A16.43,16.43,0,0,1,258,165a52.62,52.62,0,0,1,10.34,2.14,150.37,150.37,0,0,1,18.92,7.3c6.11,2.79,12.07,5.82,17.9,9.19l.27.16.09.1h0c2.8,2.7,5.45,5.47,8,8.37a72.6,72.6,0,0,1,7.12,9.28,25.81,25.81,0,0,1,1.46,2.66,12.48,12.48,0,0,1,1,3.07,5,5,0,0,1,.11.89,4.37,4.37,0,0,1,0,1,3.64,3.64,0,0,1-.23,1l-.19.51-.11.27a5.64,5.64,0,0,0-.39,1.12c0,.19-.11.38-.15.58l-.08.61a12.83,12.83,0,0,0,.56,5.07,21.78,21.78,0,0,0,2.1,4.87Z" transform="translate(-5.28 -8.32)"/><path class="cls-4" d="M189.73,248.42a10.89,10.89,0,0,0-1.48.49,13.84,13.84,0,0,0-1.5.72,16.29,16.29,0,0,0-2.75,1.91,18.33,18.33,0,0,0-4.17,5.25,30.42,30.42,0,0,0-3.22,13.31,63.78,63.78,0,0,0,1.23,14.12,118.87,118.87,0,0,0,3.59,13.92h0l.7,2.72-2.38.91c-2.2.84-4.35,1.77-6.58,2.53s-4.47,1.5-6.82,1.95a53.25,53.25,0,0,1-14.19,1.57A40.3,40.3,0,0,1,138,305a28.55,28.55,0,0,1-6.47-3.74l-.4-.33c-.15-.13-.32-.29-.43-.4s-.46-.48-.67-.72c-.42-.48-.81-1-1.18-1.46a29.21,29.21,0,0,1-2-3.1,28,28,0,0,1-3.6-14.12,33.53,33.53,0,0,1,3.52-13.91,54.35,54.35,0,0,1,7.89-11.61,91.76,91.76,0,0,1,9.93-9.65l-.5,1h0a13.93,13.93,0,0,0-.88-6.05,13.41,13.41,0,0,0-3.51-5,21,21,0,0,0-5.32-3.45,27.49,27.49,0,0,0-6.09-2l.47-2.84a30.1,30.1,0,0,1,6.83,2.21,23.85,23.85,0,0,1,6.06,3.94,16.3,16.3,0,0,1,4.24,6.06,16.82,16.82,0,0,1,1.08,7.3h0v.56l-.49.44c-6.63,6-12.74,12.72-16.36,20.64a29.66,29.66,0,0,0-2.77,12.36,23.65,23.65,0,0,0,3.4,11.87,24.68,24.68,0,0,0,1.76,2.55c.32.4.65.79,1,1.15.17.18.34.36.5.51l.2.17.26.2a24.07,24.07,0,0,0,5.38,2.88,35.25,35.25,0,0,0,12.43,2.1,47.79,47.79,0,0,0,12.74-1.8c2.11-.46,4.15-1.31,6.21-2s4-1.7,6.05-2.53l-1.67,3.63h0a124.5,124.5,0,0,1-3-14.8,68.55,68.55,0,0,1-.48-15.25,34.41,34.41,0,0,1,4.52-14.86,21.8,21.8,0,0,1,5.29-5.95,19.46,19.46,0,0,1,3.41-2.1,16.84,16.84,0,0,1,1.87-.77,12.82,12.82,0,0,1,2.06-.54Z" transform="translate(-5.28 -8.32)"/><path class="cls-14" d="M210.5,320s19,10,30,7c7,6-1,17,33,31" transform="translate(-5.28 -8.32)"/><path class="cls-3" d="M336.92,195.53a10.69,10.69,0,0,0,.64,1.34,14.87,14.87,0,0,0,.85,1.37,15.08,15.08,0,0,0,1,1.29,14.57,14.57,0,0,0,1.1,1.21,23.61,23.61,0,0,0,5.27,4l1.49.76c.49.26,1,.43,1.54.66a29.91,29.91,0,0,0,3.18,1.1c1.08.32,2.2.52,3.3.78l3.37.49.28,0,.15.07h0a9.64,9.64,0,0,1,4,1.51,14.58,14.58,0,0,1,3.17,2.88,20.72,20.72,0,0,1,2.37,3.51,25.68,25.68,0,0,1,1.59,3.83,30.73,30.73,0,0,1,1.35,7.94,34.21,34.21,0,0,1-.06,4,29.25,29.25,0,0,1-.5,4l-3-.45a42.78,42.78,0,0,0-.26-7.18,31.67,31.67,0,0,0-1.57-6.88,18.69,18.69,0,0,0-3.31-5.84,66,66,0,0,0-5-4.49h0l.43.11-3.61-.53c-1.19-.29-2.39-.5-3.57-.85a32.9,32.9,0,0,1-3.48-1.2c-.57-.24-1.15-.44-1.7-.73l-1.65-.85a26.6,26.6,0,0,1-6-4.49,17.37,17.37,0,0,1-1.27-1.4,19.9,19.9,0,0,1-2.16-3.13,12.81,12.81,0,0,1-.86-1.84Z" transform="translate(-5.28 -8.32)"/><path class="cls-2" d="M379.68,71.28A22.34,22.34,0,0,0,377.83,70c-.67-.43-1.36-.86-2.07-1.22a30.4,30.4,0,0,0-4.39-1.95,21.33,21.33,0,0,0-9.24-1.11l-1.15.14c-.38.07-.75.19-1.12.28l-1.13.29a10.93,10.93,0,0,0-1.09.42A23.47,23.47,0,0,0,353.44,69a70.54,70.54,0,0,1-9.53,5.16c-6.48,3-13.09,5.37-19.58,8-3.24,1.3-6.46,2.62-9.53,4.16a33.5,33.5,0,0,0-4.37,2.57,13.1,13.1,0,0,0-1.84,1.56,5.21,5.21,0,0,0-1.12,1.8l-1.94-.48A7.14,7.14,0,0,1,307,89a15.18,15.18,0,0,1,2.07-1.94,35.71,35.71,0,0,1,4.55-3c3.12-1.75,6.33-3.24,9.54-4.7,6.41-2.9,12.88-5.6,19-8.76a66.58,66.58,0,0,0,8.73-5.24c.69-.49,1.58-1,2.36-1.55a16.44,16.44,0,0,1,2.58-1.34c.45-.19.88-.44,1.34-.58l1.4-.43c.47-.14.94-.3,1.41-.41l1.45-.25a26.43,26.43,0,0,1,11.52.83,35.85,35.85,0,0,1,5.32,2.07c.86.4,1.69.86,2.52,1.34.41.24.82.48,1.23.76s.78.51,1.27.88Z" transform="translate(-5.28 -8.32)"/><path class="cls-8" d="M310.24,174.82l-17-26-.37-.56.18-.65h0a137.89,137.89,0,0,1,6.28-19.16c.67-1.56,1.39-3.12,2.23-4.65a24.08,24.08,0,0,1,3.06-4.51,9.44,9.44,0,0,1,2.45-2,10.38,10.38,0,0,1,1.37-.63c.41-.17.83-.35,1.24-.49,1.63-.6,3.25-1.13,4.88-1.61a145.34,145.34,0,0,1,19.79-4.36,92.15,92.15,0,0,1,10.21-1,45.4,45.4,0,0,1,10.68.65l-1.48,6.4a39.49,39.49,0,0,0-9.1-.93,86.35,86.35,0,0,0-9.62.51,140.25,140.25,0,0,0-19.22,3.34c-1.57.39-3.13.82-4.64,1.3-.39.11-.74.25-1.1.38a7.13,7.13,0,0,0-.91.36,5.13,5.13,0,0,0-1.38,1.08,20,20,0,0,0-2.66,3.6c-.81,1.34-1.56,2.77-2.26,4.22a134.71,134.71,0,0,0-6.93,18.33h0l-.19-1.21,17,26Z" transform="translate(-5.28 -8.32)"/><path class="cls-8" d="M273.73,73.4c5.43,2,10.71,4.38,15.91,6.93a161.45,161.45,0,0,1,15.15,8.55A98.4,98.4,0,0,1,318.7,99.51a58.87,58.87,0,0,1,6.08,6.46c.48.57.93,1.16,1.37,1.77s.9,1.2,1.29,1.84.83,1.26,1.2,1.92.93,1.23.71,2.18l-2.7,1.31c-.9-.32-.94-1-1.32-1.63s-.7-1.18-1-1.77-.75-1.15-1.13-1.72-.78-1.14-1.22-1.68a55.42,55.42,0,0,0-5.56-6.26,101.36,101.36,0,0,0-13.15-10.73,159.68,159.68,0,0,0-14.58-9c-5-2.77-10.14-5.36-15.38-7.62Z" transform="translate(-5.28 -8.32)"/><path class="cls-6" d="M156.89,192A40.41,40.41,0,0,1,159.15,180a21.91,21.91,0,0,1,7-10.18,17.54,17.54,0,0,1,12-3.36,36.11,36.11,0,0,1,12,3.12l-2,2h0l-.73-1.67a10.54,10.54,0,0,1-.65-1.7,19.31,19.31,0,0,1-.81-3.57c-.07-.61-.18-1.21-.21-1.82v-1.83c0-.31,0-.61,0-.92l.12-.9.25-1.81A35.17,35.17,0,0,1,192,144.52,68.47,68.47,0,0,1,201.18,134a115.33,115.33,0,0,1,10.62-8.85,176.65,176.65,0,0,1,23.4-14.42,158.87,158.87,0,0,1,25.48-10.65l.19-.06.29,0a38.32,38.32,0,0,1,11.55.23,31,31,0,0,1,11,4.3,33.8,33.8,0,0,1,8.62,8,38.91,38.91,0,0,1,3.17,4.91c.47.85.91,1.73,1.31,2.63.2.45.4.9.58,1.37s.35.89.55,1.53l-6.87,2c-.06-.21-.2-.65-.33-1s-.27-.73-.43-1.09c-.3-.73-.64-1.46-1-2.17a32,32,0,0,0-2.49-4.09,27.08,27.08,0,0,0-6.71-6.61,24.58,24.58,0,0,0-8.61-3.64,32.19,32.19,0,0,0-9.65-.44l.48-.1a153.55,153.55,0,0,0-24.78,9.58,171.84,171.84,0,0,0-23.12,13.38A111.06,111.06,0,0,0,204,137.06a64.62,64.62,0,0,0-8.92,9.64,31.71,31.71,0,0,0-5.59,11.44,19,19,0,0,0,1.38,12.19h0l1.42,3.64-3.38-1.6A33.41,33.41,0,0,0,178,169.06a15.19,15.19,0,0,0-10.59,2.5,20.06,20.06,0,0,0-6.66,9.07A39.06,39.06,0,0,0,158.11,192Z" transform="translate(-5.28 -8.32)"/><path class="cls-5" d="M135,201.57c6.08.58,12.28,1.21,17.8.55a20,20,0,0,0,3.81-.81,11.6,11.6,0,0,0,1.58-.66l.66-.39.29-.21.62-.41c.3-.19.6-.37.9-.54s.61-.25.92-.37a9.16,9.16,0,0,1,1.81-.48,13.82,13.82,0,0,1,3.23-.13,27.48,27.48,0,0,1,5.35,1.05,83,83,0,0,1,9.12,3.46c2.88,1.25,5.69,2.53,8.47,3.69,1.4.58,2.78,1.12,4.17,1.63s2.77.87,4.15,1.22c2.74.58,5.44.76,7.8-.38l1.76,2.43a10.91,10.91,0,0,1-4.9,2.52,19,19,0,0,1-5.29.46,44,44,0,0,1-9.8-1.82c-3.12-.89-6.1-2-9-3-1.46-.52-2.9-1.06-4.33-1.53s-2.83-1-4.19-1.31a20.29,20.29,0,0,0-3.83-.73c-.26,0-.56,0-.79,0a5.61,5.61,0,0,0-.65.05,1.82,1.82,0,0,0-.46.11l-.17,0a.22.22,0,0,1-.1.06h-.06l-.31.2-.68.44c-.46.27-.93.51-1.39.74a16.1,16.1,0,0,1-2.81,1,23.3,23.3,0,0,1-5.41.69,38.8,38.8,0,0,1-10-1.29,45.27,45.27,0,0,1-9.16-3.37Z" transform="translate(-5.28 -8.32)"/><path class="cls-5" d="M199.73,156.52a85.1,85.1,0,0,0,9.92.7,33.65,33.65,0,0,0,4.81-.29,8.61,8.61,0,0,0,1.11-.21,6,6,0,0,0,1-.29,3.23,3.23,0,0,0,.85-.41c.3-.17.64-.41,1-.63,2.68-1.89,5.49-4,8.43-5.81a65.74,65.74,0,0,1,9.28-4.85,53.07,53.07,0,0,1,20.65-4.28,59.45,59.45,0,0,1,20.78,4l-2,5.19a54.2,54.2,0,0,0-18.8-4.21,48.44,48.44,0,0,0-19,3.32,61.61,61.61,0,0,0-8.84,4.27c-2.88,1.65-5.55,3.53-8.47,5.45-.39.24-.75.48-1.19.72a6.66,6.66,0,0,1-1.46.64,9.29,9.29,0,0,1-1.44.37,11.62,11.62,0,0,1-1.39.21,36.91,36.91,0,0,1-5.33.16,88,88,0,0,1-10.31-1.06Z" transform="translate(-5.28 -8.32)"/><path class="cls-15" d="M605.5,302s27,10.64,22.5-24.68" transform="translate(-5.28 -8.32)"/><path class="cls-5" d="M335.68,386.35c-5.3.09-10.46,0-15.68-.25s-10.42-.66-15.62-1.32a90.78,90.78,0,0,1-15.5-3.2,32.67,32.67,0,0,1-7.48-3.31,14.82,14.82,0,0,1-3.33-2.81,8.82,8.82,0,0,1-2-4.16h0l2.21,1a26.54,26.54,0,0,1-5.06,2.42,16.51,16.51,0,0,1-5.8.93,16.12,16.12,0,0,1-5.81-1.31,29.57,29.57,0,0,1-5-2.73c-3.06-2-5.79-4.21-8.61-6.1a45.13,45.13,0,0,0-8.7-4.67h0l1,.25a231.75,231.75,0,0,1-23.9-4.09c-3.94-.9-7.85-1.92-11.72-3s-7.69-2.34-11.5-3.52h0l.71,0a21.87,21.87,0,0,1-7.22,0,49.8,49.8,0,0,1-6.77-1.47A112.59,112.59,0,0,1,167,344.4c-4.17-1.76-8.26-3.68-12.3-5.71s-8-4.14-11.95-6.4l1.51-2.59c3.84,2.2,7.8,4.31,11.78,6.31s8,3.89,12.12,5.62a109.67,109.67,0,0,0,12.48,4.5,46.86,46.86,0,0,0,6.37,1.39,19.09,19.09,0,0,0,6.18,0l.36-.07.35.09h0c3.9.93,7.77,1.88,11.64,2.72s7.76,1.59,11.66,2.2a226.36,226.36,0,0,0,23.57,2.42l.46,0,.52.22h0a51,51,0,0,1,9.4,6c2.86,2.25,5.46,4.66,8.1,6.72s5.37,3.69,8.36,4,6.17-.66,9.15-2.17l1.75-.89.45,1.9h0c.46,1.92,2.16,3.46,4.2,4.58A29.17,29.17,0,0,0,290,377.8a86.64,86.64,0,0,0,14.9,2.14c5.06.34,10.15.43,15.24.37s10.22-.28,15.22-.66Z" transform="translate(-5.28 -8.32)"/><path class="cls-15" d="M311.5,416s3-28,11-25" transform="translate(-5.28 -8.32)"/><path class="cls-15" d="M277.5,377s-9,9,21,31" transform="translate(-5.28 -8.32)"/><path class="cls-15" d="M163.5,391s20-10,21-14" transform="translate(-5.28 -8.32)"/><path class="cls-15" d="M160.5,381s41-5,43-8,21-4,21-4,20.66,10.25,29.33-2.37" transform="translate(-5.28 -8.32)"/><path class="cls-5" d="M154.08,376.07l10.85-5.32,10.83-5.38.13-.06.29-.07c3-.69,6-1.54,9-2.47s5.87-2,8.7-3.15a55.41,55.41,0,0,0,8.07-4.06c2.45-1.55,4.77-3.45,5.85-5.49l5.5,3.85a27,27,0,0,1-8.59,6.48,65.29,65.29,0,0,1-9.11,3.79c-3.07,1-6.17,1.9-9.29,2.65s-6.23,1.39-9.43,1.91l.41-.13-11.17,4.62-11.15,4.68Z" transform="translate(-5.28 -8.32)"/><path class="cls-6" d="M197.43,406.82a9.59,9.59,0,0,1,1.78,1.16,12.07,12.07,0,0,1,1.4,1.37,14.88,14.88,0,0,1,1.17,1.54c.33.54.67,1.09,1,1.66a20.48,20.48,0,0,1,1.33,3.52l.46,1.81.24,1.82c.06.61.15,1.22.17,1.82v1.8l0,1.8c0,.59-.14,1.18-.21,1.76a40.1,40.1,0,0,1-1.42,6.86c-.29,1.12-.74,2.18-1.13,3.26s-.75,2.16-1.24,3.19l-1.39,3.1c-.47,1-.89,2.07-1.43,3.06l-1.53,3c-.52,1-1,2-1.58,3-1.14,1.92-2.3,3.82-3.49,5.69.64-2.14,1.31-4.25,2-6.34s1.21-4.23,1.82-6.32a31.11,31.11,0,0,0,.74-3.18l.63-3.19c.23-1.06.29-2.14.45-3.2l.2-1.59c.07-.53.17-1.05.18-1.58a76.34,76.34,0,0,0,.28-12.24l-.08-1.47-.18-1.43c0-1-.3-1.88-.4-2.86-.11-.45-.21-.92-.31-1.39s-.25-.9-.36-1.39-.29-.9-.43-1.38-.38-.94-.46-1.26Z" transform="translate(-5.28 -8.32)"/><path class="cls-12" d="M362.5,250s35,11,40,40" transform="translate(-5.28 -8.32)"/><path class="cls-7" d="M102.5,389s15-2,18-8" transform="translate(-5.28 -8.32)"/><path class="cls-6" d="M41.29,244.28a43.55,43.55,0,0,0-7.42,6.5,27.06,27.06,0,0,0-5.22,8,13.85,13.85,0,0,0,1,12.85,22.48,22.48,0,0,0,2.78,3.66l1.74,2L32,279h0L30,280.52c-.65.53-1.32,1-2,1.58a33.75,33.75,0,0,0-3.56,3.53,23.49,23.49,0,0,0-2.85,4,17.71,17.71,0,0,0-1,2.2c-.15.37-.26.75-.36,1.13s-.18.81-.21,1H17a10.41,10.41,0,0,1,.14-1.64c.09-.49.18-1,.31-1.46a21,21,0,0,1,.94-2.77,27.22,27.22,0,0,1,2.83-5,38,38,0,0,1,3.62-4.37c.66-.67,1.34-1.32,2-2L29,275h0l-.38,3.74A27.39,27.39,0,0,1,25.4,274a18.73,18.73,0,0,1-2-5.48,18.41,18.41,0,0,1,1.5-11.34,30.79,30.79,0,0,1,6.39-8.85,46.56,46.56,0,0,1,8.39-6.62Z" transform="translate(-5.28 -8.32)"/><path class="cls-2" d="M90,317.43c-5.45-1.37-10.78-3-16.08-4.81s-10.54-3.8-15.7-6.06c-1.29-.57-2.59-1.12-3.86-1.75s-2.55-1.23-3.81-1.9-2.52-1.35-3.77-2.06l-.89-.5a6.82,6.82,0,0,0-.67-.35c-.39-.21-.79-.22-.48-.23a1.45,1.45,0,0,0,.74-.39c.1-.14.14-.15.17-.24s0-.07,0,0a4.14,4.14,0,0,0-.07,1.12,19.63,19.63,0,0,0,.61,3.57,66.16,66.16,0,0,0,2.49,7.58,146.14,146.14,0,0,0,6.74,14.9,96.39,96.39,0,0,0,8.36,13.85,15.19,15.19,0,0,0,2.39,2.59,1.83,1.83,0,0,0,.23.17l.11.07.22.11.89.45c.59.3,1.22.57,1.83.86,2.48,1.12,5.07,2.22,7.63,3.5a34.46,34.46,0,0,1,7.44,4.73A12.54,12.54,0,0,1,89,360.83l-3,.33a9.59,9.59,0,0,0-3.76-5.83,31,31,0,0,0-6.82-3.8c-2.48-1.07-5.07-2-7.69-3.07-.66-.28-1.31-.54-2-.84l-1-.45a7.2,7.2,0,0,1-1.23-.7,19,19,0,0,1-3.43-3.34,68.19,68.19,0,0,1-5-7.05q-2.27-3.61-4.29-7.33a151.42,151.42,0,0,1-7.26-15.34,71.05,71.05,0,0,1-2.75-8.24,24.83,24.83,0,0,1-.79-4.64,9.15,9.15,0,0,1,.28-3,6.2,6.2,0,0,1,.39-1,4.69,4.69,0,0,1,.78-1.08,4.26,4.26,0,0,1,1.22-.89,4.53,4.53,0,0,1,1.35-.39,6.64,6.64,0,0,1,3.53.67,12.33,12.33,0,0,1,1.18.61l.92.53c1.16.67,2.31,1.35,3.52,2s2.4,1.26,3.63,1.85l3.69,1.78c9.92,4.65,20.21,8.78,30.45,13Z" transform="translate(-5.28 -8.32)"/><path class="cls-8" d="M83.07,243.44A67.45,67.45,0,0,1,75.76,241c-2.38-.92-4.74-1.92-7-3.06a58.36,58.36,0,0,1-13-8.56c-.51-.42-1-.91-1.45-1.37s-1-.92-1.4-1.44-.9-1-1.33-1.52l-1.22-1.64a26.72,26.72,0,0,1-3.7-7.42,22.7,22.7,0,0,1-.92-8.38,13.49,13.49,0,0,1,.26-2.09c.13-.68.19-1.39.39-2.06a29.67,29.67,0,0,1,1.29-3.92l.79-1.89c.27-.62.63-1.19.95-1.78l1-1.76,1.11-1.65,1.12-1.64c.39-.53.82-1,1.23-1.55a33.65,33.65,0,0,1,2.62-3.06A25.86,25.86,0,0,1,71,178.92a40.13,40.13,0,0,1,15.79,1,62.69,62.69,0,0,1,7.38,2.42,52,52,0,0,1,7,3.35l-1.42,2.64A63.76,63.76,0,0,0,85.93,184a38.09,38.09,0,0,0-14-.25A23.44,23.44,0,0,0,65.53,186a20.48,20.48,0,0,0-5.27,4A29,29,0,0,0,58,192.64c-.36.47-.75.92-1.1,1.4l-1,1.47L55,197l-.83,1.53c-.27.51-.58,1-.81,1.53l-.67,1.57a19.43,19.43,0,0,0-1,12.93A26.28,26.28,0,0,0,59,225.86a59.74,59.74,0,0,0,11.65,8.46,91.19,91.19,0,0,0,13.27,6.24Z" transform="translate(-5.28 -8.32)"/><path class="cls-14" d="M231.5,82s17-4,22,3-4-19,16-22" transform="translate(-5.28 -8.32)"/><path class="cls-14" d="M281.5,44s16,9,19,15,4-19,31-21,72-3,72-3,18,4,29,15" transform="translate(-5.28 -8.32)"/><path class="cls-4" d="M95.27,124.52a58.91,58.91,0,0,1,13.81-1.28,33.51,33.51,0,0,1,7.11.88l.9.21.9.3a12.93,12.93,0,0,1,1.79.69,14.65,14.65,0,0,1,1.76.92l.85.59c.26.19.63.43.76.57s.36.29.49.39l.07,0h0l-.12-.05-.07,0-.23-.05-.23,0a2.07,2.07,0,0,0-.57.06,2.25,2.25,0,0,0-.62.27,2,2,0,0,0-.62.6,1.95,1.95,0,0,0-.34.9,1.35,1.35,0,0,0,0,.36,1,1,0,0,0,0,.15,1.16,1.16,0,0,0,0-.13c-.06-.16-.16-.39-.26-.6-.43-.91-1-1.88-1.5-2.86-1.06-2-2.18-3.93-3.21-6a69.2,69.2,0,0,1-2.92-6.28,27,27,0,0,1-1.1-3.46,10.68,10.68,0,0,1-.29-2,4.08,4.08,0,0,1,.74-2.64l2.4,1.8c.07-.07,0,.21.08.6a8.18,8.18,0,0,0,.35,1.31,23.73,23.73,0,0,0,1.26,2.86c1,1.93,2.06,3.84,3.17,5.76l3.42,5.8c.58,1,1.13,2,1.68,3.1.14.29.27.58.42.94a5.47,5.47,0,0,1,.22.67,3.79,3.79,0,0,1,.1.57,3.42,3.42,0,0,1,0,.57,2.58,2.58,0,0,1-.13.52,2.33,2.33,0,0,1-.29.57,2.54,2.54,0,0,1-.7.67,2.2,2.2,0,0,1-.71.3,2.58,2.58,0,0,1-.67.07l-.34,0-.33-.07-.17-.06-.32-.13-.38-.21-.28-.18c-.33-.23-.6-.44-.84-.64a6.29,6.29,0,0,0-.59-.44l-.53-.38a10.25,10.25,0,0,0-1.22-.65,9,9,0,0,0-1.35-.54l-.7-.25-.74-.19a29.43,29.43,0,0,0-3-.65c-1.06-.12-2.11-.28-3.19-.36-2.15-.17-4.33-.25-6.53-.22s-4.42.11-6.58.25Z" transform="translate(-5.28 -8.32)"/><path class="cls-9" d="M138.5,99s19,2,24-2,32-23,32-23" transform="translate(-5.28 -8.32)"/><path class="cls-16" d="M454.5,560s-2-2,0-6,11,15,15,12-7-9-6-15,12,15,16,13-10-14-8-18,24,21,28,20-24-33-24-33,20,21,26,22-15-21-14-25,13,14,15,12-6-16-6-16,12,14,14,13-11-15-8-18,40,36,43,35-36-34-32-38,65.33,44,80,44c12,0-56-30-55-36s51,28,54,24-39-23-43-25,10-3,10-3,53,18,78,8" transform="translate(-5.28 -8.32)"/><path class="cls-2" d="M723.32,353a44.13,44.13,0,0,0-6,.32,33.72,33.72,0,0,0-5.75,1.16,19.31,19.31,0,0,0-5,2.19,10.29,10.29,0,0,0-3.3,3.3h0l-2.62,2.46-2.09-1.62-27.22-21.07,1.7-2.47,29.38,17.93-4.71.84h0a16.68,16.68,0,0,1,6.17-4.58,24.69,24.69,0,0,1,6.72-1.79,38.17,38.17,0,0,1,6.59-.3,47.17,47.17,0,0,1,6.47.64Z" transform="translate(-5.28 -8.32)"/><path class="cls-2" d="M714.88,262.17c1.38,1.29,2.7,2.61,4,4s2.55,2.76,3.76,4.19a76.66,76.66,0,0,1,6.8,9.15,28.36,28.36,0,0,1,2.66,5.42,10.46,10.46,0,0,1,.67,3.49c0,.17,0,.34,0,.52l-.08.57c0,.19-.06.38-.11.57s-.15.41-.23.62a5.41,5.41,0,0,1-1.42,2,25,25,0,0,1-2.44,2c-.8.58-1.58,1.12-2.37,1.65-1.58,1.06-3.15,2.07-4.73,3.07-3.16,2-6.3,3.91-9.36,5.89s-6.08,4-8.76,6.16a17.53,17.53,0,0,0-3.25,3.28,4.25,4.25,0,0,0-.42.88l0,0v0l0,.11.14.43a7.79,7.79,0,0,1,.23.94,4.9,4.9,0,0,1,.06.56,3.32,3.32,0,0,1,0,.64,3.5,3.5,0,0,1-.46,1.59,3,3,0,0,1-1.39,1.25,3.52,3.52,0,0,1-1.33.31,6.44,6.44,0,0,1-1.89-.23,16,16,0,0,1-2.87-1.15,28.64,28.64,0,0,1-4.85-3.14l.47-.88c1.78.52,3.58,1,5.32,1.41a14,14,0,0,0,2.49.34,2.52,2.52,0,0,0,.89-.09c.08,0,.1-.08,0-.06a.82.82,0,0,0-.19.1,1.62,1.62,0,0,0-.21.22c-.2.36-.14.28-.25.08s-.09-.23-.18-.39l-.11-.22,0-.06-.06-.15-.11-.31a4.09,4.09,0,0,1-.28-1.25,4.55,4.55,0,0,1,0-1.21,7.89,7.89,0,0,1,.6-2,13.59,13.59,0,0,1,1.87-2.87,24.39,24.39,0,0,1,2.11-2.26,62.51,62.51,0,0,1,9.23-7c3.18-2,6.4-3.94,9.6-5.82,1.6-.93,3.21-1.85,4.76-2.78.77-.47,1.55-.94,2.28-1.42a20.8,20.8,0,0,0,2-1.43l.19-.16c.09-.07,0,0,0,0l0,0s0,0,0,0l0,0a.93.93,0,0,1,0-.11l0-.11s0-.12,0-.18a5.72,5.72,0,0,0-.24-2,26,26,0,0,0-1.88-4.74,99.88,99.88,0,0,0-5.43-9.46c-2-3.1-4-6.2-6.14-9.26Z" transform="translate(-5.28 -8.32)"/><path class="cls-1" d="M512,455.61l19.9-18,.68,4.13h0a93.88,93.88,0,0,1-8.88-4.25,38.38,38.38,0,0,1-8.36-5.82,11.5,11.5,0,0,1-1.83-2.32,5.76,5.76,0,0,1-.83-3.65,3.65,3.65,0,0,1,.26-1,3.92,3.92,0,0,1,.46-.92l.28-.4A3.29,3.29,0,0,1,514,423l.4-.46,1.61-1.82,6.45-7.11q12.94-14.14,26-28.16l2.22,2q-12.67,14.35-25.27,28.77l-6.24,7.23c-.93,1.11-2.42,2.8-2.15,2.77a1.68,1.68,0,0,0,.32.89,7.37,7.37,0,0,0,1.18,1.39,34.53,34.53,0,0,0,7.45,4.87,89.47,89.47,0,0,0,8.48,3.81h0l3.8,1.69-3.12,2.44L514,457.9Z" transform="translate(-5.28 -8.32)"/></svg>