<svg xmlns="http://www.w3.org/2000/svg" viewBox="0 0 744.46 467.92"><defs><style>.cls-1,.cls-4{fill:#fff;}.cls-1,.cls-2,.cls-3,.cls-6{stroke:#d68b48;stroke-miterlimit:10;}.cls-2,.cls-3,.cls-6{fill:none;}.cls-3{stroke-width:1.5px;}.cls-5{fill:#d68b48;}.cls-6{stroke-width:2px;}</style></defs><title>mobile-laptop</title><g id="Layer_5" data-name="Layer 5"><path class="cls-1" d="M380.27,422.88a.33.33,0,0,0,0,.64L402.86,429a3.22,3.22,0,0,0,1.66,0l8.44-2.85a.19.19,0,0,0,0-.37L390.29,420a.88.88,0,0,0-.51,0S384,421.82,380.27,422.88Z" transform="translate(-28.73 -20.5)"/><line class="cls-2" x1="351.3" y1="402.65" x2="351.3" y2="406.73"/><line class="cls-2" x1="375.32" y1="408.64" x2="375.32" y2="413.45"/><line class="cls-2" x1="384.28" y1="405.52" x2="384.28" y2="408.54"/><path class="cls-2" d="M393.27,418.88a.33.33,0,0,0,0,.64L414.86,425a3.22,3.22,0,0,0,1.66,0l9.44-2.85a.19.19,0,0,0,0-.37L404.29,416a.88.88,0,0,0-.51,0S397,417.82,393.27,418.88Z" transform="translate(-28.73 -20.5)"/><line class="cls-2" x1="364.3" y1="398.65" x2="364.3" y2="400.73"/><line class="cls-2" x1="387.32" y1="404.64" x2="387.32" y2="407.45"/><line class="cls-2" x1="397.28" y1="401.52" x2="397.28" y2="403.54"/><path class="cls-1" d="M353.43,414a.55.55,0,0,0,0,1.05l22.69,6.1a5.31,5.31,0,0,0,2.74,0l20.54-6.36a.32.32,0,0,0,0-.61l-24.51-6.55a1.45,1.45,0,0,0-.84,0S359.56,412.22,353.43,414Z" transform="translate(-28.73 -20.5)"/><line class="cls-1" x1="324.3" y1="393.92" x2="324.3" y2="399"/><line class="cls-1" x1="349.36" y1="400.81" x2="349.36" y2="406.45"/><line class="cls-1" x1="370.77" y1="394" x2="370.77" y2="397"/><path class="cls-1" d="M368.43,400a.55.55,0,0,0,0,1.05l22.69,6.1a5.31,5.31,0,0,0,2.74,0l20.54-6.36a.32.32,0,0,0,0-.61l-24.51-6.55a1.45,1.45,0,0,0-.84,0S374.56,398.22,368.43,400Z" transform="translate(-28.73 -20.5)"/><line class="cls-1" x1="339.3" y1="379.92" x2="339.3" y2="385"/><line class="cls-1" x1="364.36" y1="386.81" x2="364.36" y2="392.45"/><line class="cls-1" x1="385.77" y1="380" x2="385.77" y2="384"/><path class="cls-1" d="M416.43,396a.55.55,0,0,0,0,1.05l20.69,6.1a5.31,5.31,0,0,0,2.74,0l18.54-5.36a.32.32,0,0,0,0-.61l-21.51-6.55a1.45,1.45,0,0,0-.84,0S422.56,394.22,416.43,396Z" transform="translate(-28.73 -20.5)"/><line class="cls-1" x1="387.3" y1="375.92" x2="387.3" y2="383"/><line class="cls-1" x1="410.36" y1="382.81" x2="410.36" y2="387.45"/><line class="cls-1" x1="429.77" y1="377" x2="429.77" y2="379"/><path class="cls-1" d="M386.43,389a.55.55,0,0,0,0,1.05l20.69,6.1a5.31,5.31,0,0,0,2.74,0l18.54-5.36a.32.32,0,0,0,0-.61l-21.51-6.55a1.45,1.45,0,0,0-.84,0S392.56,387.22,386.43,389Z" transform="translate(-28.73 -20.5)"/><line class="cls-1" x1="357.3" y1="368.92" x2="357.3" y2="374"/><line class="cls-1" x1="380.36" y1="375.81" x2="380.36" y2="378.45"/><line class="cls-1" x1="399.77" y1="370" x2="399.77" y2="372"/><path class="cls-1" d="M356.43,381a.55.55,0,0,0,0,1.05l20.69,6.1a5.31,5.31,0,0,0,2.74,0l18.54-5.36a.32.32,0,0,0,0-.61l-21.51-6.55a1.45,1.45,0,0,0-.84,0S362.56,379.22,356.43,381Z" transform="translate(-28.73 -20.5)"/><line class="cls-1" x1="327.3" y1="360.92" x2="327.3" y2="368"/><line class="cls-1" x1="350.36" y1="367.81" x2="350.36" y2="372.45"/><line class="cls-1" x1="369.77" y1="362" x2="369.77" y2="365"/><path class="cls-1" d="M326.43,373a.55.55,0,0,0,0,1.05l20.69,6.1a5.31,5.31,0,0,0,2.74,0l18.54-5.36a.32.32,0,0,0,0-.61l-21.51-6.55a1.45,1.45,0,0,0-.84,0S332.56,371.22,326.43,373Z" transform="translate(-28.73 -20.5)"/><line class="cls-1" x1="297.3" y1="352.92" x2="297.3" y2="360"/><line class="cls-1" x1="320.36" y1="359.81" x2="320.36" y2="364.45"/><line class="cls-1" x1="339.77" y1="354" x2="339.77" y2="357"/><path class="cls-1" d="M296.43,365a.55.55,0,0,0,0,1.05l20.69,6.1a5.31,5.31,0,0,0,2.74,0l18.54-5.36a.32.32,0,0,0,0-.61l-21.51-6.55a1.45,1.45,0,0,0-.84,0S302.56,363.22,296.43,365Z" transform="translate(-28.73 -20.5)"/><line class="cls-1" x1="267.3" y1="344.92" x2="267.3" y2="352"/><line class="cls-1" x1="290.36" y1="351.81" x2="290.36" y2="357.45"/><line class="cls-1" x1="309.77" y1="346" x2="309.77" y2="349"/><path class="cls-1" d="M471.43,381a.55.55,0,0,0,0,1.05l21.69,6.1a5.31,5.31,0,0,0,2.74,0l19.54-5.36a.32.32,0,0,0,0-.61l-25.51-6.55a1.45,1.45,0,0,0-.84,0S477.56,379.22,471.43,381Z" transform="translate(-28.73 -20.5)"/><line class="cls-1" x1="442.3" y1="360.92" x2="442.3" y2="367"/><line class="cls-1" x1="466.36" y1="367.81" x2="466.36" y2="371.45"/><line class="cls-1" x1="486.77" y1="362" x2="486.77" y2="364"/><path class="cls-1" d="M336.43,391a.55.55,0,0,0,0,1.05l22.69,6.1a5.31,5.31,0,0,0,2.74,0l20.54-6.36a.32.32,0,0,0,0-.61l-24.51-6.55a1.45,1.45,0,0,0-.84,0S342.56,389.22,336.43,391Z" transform="translate(-28.73 -20.5)"/><line class="cls-1" x1="307.3" y1="370.92" x2="307.3" y2="377"/><line class="cls-1" x1="332.36" y1="377.81" x2="332.36" y2="383.45"/><line class="cls-1" x1="353.77" y1="371" x2="353.77" y2="375"/><path class="cls-1" d="M305.43,383a.55.55,0,0,0,0,1.05l22.69,6.1a5.31,5.31,0,0,0,2.74,0l20.54-6.36a.32.32,0,0,0,0-.61l-24.51-6.55a1.45,1.45,0,0,0-.84,0S311.56,381.22,305.43,383Z" transform="translate(-28.73 -20.5)"/><line class="cls-1" x1="276.3" y1="362.92" x2="276.3" y2="368"/><line class="cls-1" x1="301.36" y1="369.81" x2="301.36" y2="375.45"/><line class="cls-1" x1="322.77" y1="363" x2="322.77" y2="366"/><path class="cls-1" d="M269.43,374a.55.55,0,0,0,0,1.05l22.69,6.1a5.31,5.31,0,0,0,2.74,0l20.54-6.36a.32.32,0,0,0,0-.61l-24.51-6.55a1.45,1.45,0,0,0-.84,0S275.56,372.22,269.43,374Z" transform="translate(-28.73 -20.5)"/><line class="cls-1" x1="240.3" y1="353.92" x2="240.3" y2="359"/><line class="cls-1" x1="265.36" y1="360.81" x2="265.36" y2="366.45"/><line class="cls-1" x1="286.77" y1="354" x2="286.77" y2="359"/><path class="cls-1" d="M435.43,386a.55.55,0,0,0,0,1.05l18.69,5.1a5.31,5.31,0,0,0,2.74,0l17.54-5.36a.32.32,0,0,0,0-.61l-20.51-5.55a1.45,1.45,0,0,0-.84,0S441.56,384.22,435.43,386Z" transform="translate(-28.73 -20.5)"/><line class="cls-1" x1="406.3" y1="365.92" x2="406.77" y2="370"/><line class="cls-1" x1="427.36" y1="371.81" x2="427.36" y2="375.45"/><line class="cls-1" x1="445.77" y1="366" x2="445.77" y2="369"/><path class="cls-1" d="M407.43,379a.55.55,0,0,0,0,1.05l18.69,5.1a5.31,5.31,0,0,0,2.74,0l17.54-5.36a.32.32,0,0,0,0-.61l-20.51-5.55a1.45,1.45,0,0,0-.84,0S413.56,377.22,407.43,379Z" transform="translate(-28.73 -20.5)"/><line class="cls-1" x1="378.3" y1="358.92" x2="378.77" y2="363"/><line class="cls-1" x1="399.36" y1="364.81" x2="399.36" y2="369.45"/><line class="cls-1" x1="417.77" y1="359" x2="417.77" y2="362"/><path class="cls-1" d="M379.43,372a.55.55,0,0,0,0,1.05l18.69,5.1a5.31,5.31,0,0,0,2.74,0l17.54-5.36a.32.32,0,0,0,0-.61l-20.51-5.55a1.45,1.45,0,0,0-.84,0S385.56,370.22,379.43,372Z" transform="translate(-28.73 -20.5)"/><line class="cls-1" x1="350.3" y1="351.92" x2="350.77" y2="356"/><line class="cls-1" x1="371.36" y1="357.81" x2="371.36" y2="364.45"/><line class="cls-1" x1="389.77" y1="352" x2="389.77" y2="355"/><path class="cls-1" d="M351.43,365a.55.55,0,0,0,0,1.05l18.69,5.1a5.31,5.31,0,0,0,2.74,0l17.54-5.36a.32.32,0,0,0,0-.61l-20.51-5.55a1.45,1.45,0,0,0-.84,0S357.56,363.22,351.43,365Z" transform="translate(-28.73 -20.5)"/><line class="cls-1" x1="322.3" y1="344.92" x2="322.77" y2="349"/><line class="cls-1" x1="343.36" y1="350.81" x2="343.36" y2="356.45"/><line class="cls-1" x1="361.77" y1="345" x2="361.77" y2="348"/><path class="cls-1" d="M323.43,358a.55.55,0,0,0,0,1.05l18.69,5.1a5.31,5.31,0,0,0,2.74,0l17.54-5.36a.32.32,0,0,0,0-.61l-20.51-5.55a1.45,1.45,0,0,0-.84,0S329.56,356.22,323.43,358Z" transform="translate(-28.73 -20.5)"/><line class="cls-1" x1="294.3" y1="337.92" x2="294.77" y2="342"/><line class="cls-1" x1="315.36" y1="343.81" x2="315.36" y2="347.45"/><line class="cls-1" x1="333.77" y1="338" x2="333.77" y2="341"/><path class="cls-1" d="M295.43,351a.55.55,0,0,0,0,1.05l18.69,5.1a5.31,5.31,0,0,0,2.74,0l17.54-5.36a.32.32,0,0,0,0-.61l-20.51-5.55a1.45,1.45,0,0,0-.84,0S301.56,349.22,295.43,351Z" transform="translate(-28.73 -20.5)"/><line class="cls-1" x1="266.3" y1="330.92" x2="266.77" y2="335"/><line class="cls-1" x1="287.36" y1="336.81" x2="287.36" y2="339.45"/><line class="cls-1" x1="305.77" y1="331" x2="305.77" y2="334"/><path class="cls-1" d="M270.43,343a.55.55,0,0,0,0,1.05l18.69,5.1a5.31,5.31,0,0,0,2.74,0l17.54-5.36a.32.32,0,0,0,0-.61l-20.51-5.55a1.45,1.45,0,0,0-.84,0S276.56,341.22,270.43,343Z" transform="translate(-28.73 -20.5)"/><line class="cls-1" x1="241.3" y1="322.92" x2="241.77" y2="327"/><line class="cls-1" x1="262.36" y1="328.81" x2="262.36" y2="332.45"/><line class="cls-1" x1="280.77" y1="323" x2="280.77" y2="326"/><path class="cls-1" d="M444.43,374a.55.55,0,0,0,0,1.05l18.69,5.1a5.31,5.31,0,0,0,2.74,0l18.54-5.36a.32.32,0,0,0,0-.61l-21.51-5.55a1.45,1.45,0,0,0-.84,0S450.56,372.22,444.43,374Z" transform="translate(-28.73 -20.5)"/><line class="cls-1" x1="415.3" y1="353.92" x2="415.77" y2="358"/><line class="cls-1" x1="436.36" y1="359.81" x2="436.36" y2="363.45"/><line class="cls-1" x1="455.77" y1="354" x2="455.77" y2="357"/><path class="cls-1" d="M417.43,367a.55.55,0,0,0,0,1.05l18.69,5.1a5.31,5.31,0,0,0,2.74,0l18.54-5.36a.32.32,0,0,0,0-.61l-21.51-5.55a1.45,1.45,0,0,0-.84,0S423.56,365.22,417.43,367Z" transform="translate(-28.73 -20.5)"/><line class="cls-1" x1="388.3" y1="346.92" x2="388.77" y2="351"/><line class="cls-1" x1="409.36" y1="352.81" x2="409.36" y2="356.45"/><line class="cls-1" x1="428.77" y1="347" x2="428.77" y2="350"/><path class="cls-1" d="M392.43,360a.55.55,0,0,0,0,1.05l18.69,5.1a5.31,5.31,0,0,0,2.74,0l18.54-5.36a.32.32,0,0,0,0-.61l-21.51-5.55a1.45,1.45,0,0,0-.84,0S398.56,358.22,392.43,360Z" transform="translate(-28.73 -20.5)"/><line class="cls-1" x1="363.3" y1="339.92" x2="363.77" y2="347"/><line class="cls-1" x1="384.36" y1="345.81" x2="384.36" y2="350.45"/><line class="cls-1" x1="403.77" y1="340" x2="403.77" y2="342"/><path class="cls-1" d="M365.43,353a.55.55,0,0,0,0,1.05l18.69,5.1a5.31,5.31,0,0,0,2.74,0l18.54-5.36a.32.32,0,0,0,0-.61l-21.51-5.55a1.45,1.45,0,0,0-.84,0S371.56,351.22,365.43,353Z" transform="translate(-28.73 -20.5)"/><line class="cls-1" x1="336.3" y1="332.92" x2="336.77" y2="340"/><line class="cls-1" x1="357.36" y1="338.81" x2="357.36" y2="343.45"/><line class="cls-1" x1="376.77" y1="333" x2="376.77" y2="336"/><path class="cls-1" d="M338.43,346a.55.55,0,0,0,0,1.05l18.69,5.1a5.31,5.31,0,0,0,2.74,0l18.54-5.36a.32.32,0,0,0,0-.61l-21.51-5.55a1.45,1.45,0,0,0-.84,0S344.56,344.22,338.43,346Z" transform="translate(-28.73 -20.5)"/><line class="cls-1" x1="309.3" y1="325.92" x2="309.77" y2="333"/><line class="cls-1" x1="330.36" y1="331.81" x2="330.36" y2="336.45"/><line class="cls-1" x1="349.77" y1="326" x2="349.77" y2="329"/><path class="cls-1" d="M311.43,339a.55.55,0,0,0,0,1.05l18.69,5.1a5.31,5.31,0,0,0,2.74,0l18.54-5.36a.32.32,0,0,0,0-.61l-21.51-5.55a1.45,1.45,0,0,0-.84,0S317.56,337.22,311.43,339Z" transform="translate(-28.73 -20.5)"/><line class="cls-1" x1="282.3" y1="318.92" x2="282.77" y2="325"/><line class="cls-1" x1="303.36" y1="324.81" x2="303.36" y2="329.45"/><line class="cls-1" x1="322.77" y1="319" x2="322.77" y2="322"/><path class="cls-1" d="M284.43,332a.55.55,0,0,0,0,1.05l18.69,5.1a5.31,5.31,0,0,0,2.74,0l18.54-5.36a.32.32,0,0,0,0-.61l-21.51-5.55a1.45,1.45,0,0,0-.84,0S290.56,330.22,284.43,332Z" transform="translate(-28.73 -20.5)"/><line class="cls-1" x1="255.3" y1="311.92" x2="255.77" y2="316"/><line class="cls-1" x1="276.36" y1="317.81" x2="276.36" y2="321.45"/><line class="cls-1" x1="295.77" y1="312" x2="295.77" y2="315"/><path class="cls-1" d="M316.43,404a.55.55,0,0,0,0,1.05l29.69,8.1a5.31,5.31,0,0,0,2.74,0l20.54-6.36a.32.32,0,0,0,0-.61l-31.51-8.55a1.45,1.45,0,0,0-.84,0S322.56,402.22,316.43,404Z" transform="translate(-28.73 -20.5)"/><line class="cls-1" x1="287.3" y1="383.92" x2="287.3" y2="389"/><line class="cls-1" x1="319.36" y1="392.81" x2="319.36" y2="398.45"/><line class="cls-1" x1="340.77" y1="386" x2="340.77" y2="389"/><path class="cls-1" d="M274.43,392a.55.55,0,0,0,0,1.05l35.69,10.1a5.31,5.31,0,0,0,2.74,0l20.54-6.36a.32.32,0,0,0,0-.61l-33.51-9.55a1.45,1.45,0,0,0-.84,0S280.56,390.22,274.43,392Z" transform="translate(-28.73 -20.5)"/><line class="cls-1" x1="245.3" y1="371.92" x2="251.3" y2="378"/><line class="cls-1" x1="283.36" y1="382.81" x2="283.36" y2="387.45"/><line class="cls-1" x1="304.77" y1="376" x2="304.77" y2="378"/><path class="cls-1" d="M496.43,403a.55.55,0,0,0,0,1.05l27.69,8.1a5.31,5.31,0,0,0,2.74,0l21.54-5.36a.32.32,0,0,0,0-.61l-30.51-8.55a1.45,1.45,0,0,0-.84,0S502.56,401.22,496.43,403Z" transform="translate(-28.73 -20.5)"/><line class="cls-1" x1="467.3" y1="382.92" x2="467.3" y2="389"/><line class="cls-1" x1="497.36" y1="391.81" x2="497.36" y2="397.45"/><line class="cls-1" x1="519.77" y1="386" x2="519.77" y2="392"/><path class="cls-1" d="M459.43,393a.55.55,0,0,0,0,1.05l27.69,8.1a5.31,5.31,0,0,0,2.74,0l21.54-5.36a.32.32,0,0,0,0-.61l-30.51-8.55a1.45,1.45,0,0,0-.84,0C464.61,391.45,464.64,391.48,459.43,393Z" transform="translate(-28.73 -20.5)"/><line class="cls-1" x1="430.3" y1="372.92" x2="430.3" y2="378"/><line class="cls-1" x1="460.36" y1="381.81" x2="460.36" y2="387.45"/><line class="cls-1" x1="482.77" y1="376" x2="482.77" y2="379"/><path class="cls-1" d="M499.43,389a.55.55,0,0,0,0,1.05l52.69,14.1a5.31,5.31,0,0,0,2.74,0l20.54-5.36a.32.32,0,0,0,0-.61l-55.51-14.55a1.45,1.45,0,0,0-.84,0S505.56,387.22,499.43,389Z" transform="translate(-28.73 -20.5)"/><line class="cls-1" x1="470.3" y1="368.92" x2="470.3" y2="372"/><line class="cls-1" x1="525.36" y1="383.81" x2="525.36" y2="389.45"/><line class="cls-1" x1="546.77" y1="378" x2="546.77" y2="384"/><path class="cls-1" d="M444.43,404a.55.55,0,0,0,0,1.05l51.69,15.1a5.31,5.31,0,0,0,2.74,0l22.54-6.36a.32.32,0,0,0,0-.61l-55.51-15.55a1.45,1.45,0,0,0-.84,0S450.56,402.22,444.43,404Z" transform="translate(-28.73 -20.5)"/><line class="cls-1" x1="415.3" y1="383.92" x2="415.3" y2="389"/><line class="cls-1" x1="469.36" y1="399.81" x2="469.36" y2="405.45"/><line class="cls-1" x1="492.77" y1="393" x2="492.77" y2="399"/><path class="cls-1" d="M398.5,413.5" transform="translate(-28.73 -20.5)"/><path class="cls-1" d="M398.5,409.5" transform="translate(-28.73 -20.5)"/><line class="cls-1" x1="437.77" y1="409" x2="437.77" y2="414"/><line class="cls-1" x1="461.77" y1="402" x2="461.77" y2="408"/><line class="cls-2" x1="368.77" y1="389" x2="368.77" y2="393"/></g><g id="Layer_3" data-name="Layer 3"><path class="cls-3" d="M664.44,410.75l-339-84.33a12,12,0,0,1-12-12l79-264.67c2.56-7.75,6.4-12,13-12l355-16.5a12,12,0,0,1,12,12l-96,367.5C674.16,407.42,671.27,411.83,664.44,410.75Z" transform="translate(-28.73 -20.5)"/><path class="cls-4" d="M664.44,400.87a11.81,11.81,0,0,1-11.67,11.88L323,327.31a11.81,11.81,0,0,1-11.67-11.88" transform="translate(-28.73 -20.5)"/><polygon class="cls-2" points="638.98 317.25 309.71 262.25 375.21 36.75 716.21 29.25 638.98 317.25"/><ellipse class="cls-2" cx="556.22" cy="39.46" rx="5.99" ry="4.29" transform="translate(379.97 556.71) rotate(-78.72)"/><ellipse class="cls-2" cx="545.76" cy="40.33" rx="2.53" ry="1.81" transform="translate(370.71 547.15) rotate(-78.72)"/><path class="cls-2" d="M29.79,366.65c1.93,1,290,108.73,295.15,110.1s32,6,48.67,0c15.15-5.46,242-68.85,283.84-80.72a82.1,82.1,0,0,1,10.73-2.58c.67-.07-.27-1-.94-1.18l-359-77.85S44.52,362.32,40.6,363.08C37.81,363.63,27.5,365.5,29.79,366.65Z" transform="translate(-28.73 -20.5)"/><path class="cls-5" d="M29.27,365.88l2.1,3.14-.56-.54,80.41,30.72L191.59,430l80.36,30.85,40.18,15.42,10,3.86,2.51,1c.78.3,1.64.55,2.48.8q2.54.75,5.13,1.35a100,100,0,0,0,21,2.67,75,75,0,0,0,10.56-.55,82.25,82.25,0,0,0,10.4-2.13L395.17,478l41.69-10.67,83.36-21.47,83.34-21.54,41.67-10.78,20.83-5.39,1.3-.34a3.12,3.12,0,0,0,1-.48,6.93,6.93,0,0,0,1.65-1.8,10.84,10.84,0,0,0,1.71-4.73,7.81,7.81,0,0,0-1-4.8,8.7,8.7,0,0,0-3.74-3.26l.42-.93a9.17,9.17,0,0,1,4.35,3.57,8.79,8.79,0,0,1,1.17,5.55,12.08,12.08,0,0,1-1.89,5.3,8.16,8.16,0,0,1-2,2.14,4.41,4.41,0,0,1-1.41.68l-1.3.34-20.81,5.47L604,425.8l-83.27,21.84L437.4,469.41l-41.66,10.82-20.86,5.34c-1.76.42-3.46.9-5.26,1.28s-3.59.69-5.4.94a77.43,77.43,0,0,1-10.91.61,100.39,100.39,0,0,1-21.57-2.73q-2.65-.62-5.27-1.39c-.88-.27-1.74-.51-2.63-.86l-2.51-1-10-3.86-40.18-15.45-80.35-30.89-80.35-30.9-80.3-31-.48-.19-.08-.35-.81-3.69Z" transform="translate(-28.73 -20.5)"/><ellipse class="cls-2" cx="627.63" cy="383.42" rx="3.08" ry="3.5"/><polygon class="cls-2" points="556.46 406.5 537.96 411.5 537.96 403.5 556.46 398.5 556.46 406.5"/><polygon class="cls-5" points="555.46 403.01 538.96 407.33 538.96 404.69 555.46 400.38 555.46 403.01"/><polygon class="cls-2" points="581.46 400 562.96 405 562.96 397 581.46 392 581.46 400"/><polygon class="cls-5" points="580.46 396.51 563.96 400.83 563.96 398.19 580.46 393.88 580.46 396.51"/><polygon class="cls-3" points="407.77 423 110.77 339 265.21 301.25 560.96 379.69 407.77 423"/><line class="cls-2" x1="313.41" y1="248.5" x2="643.67" y2="298.75"/><path class="cls-2" d="M546.68,398.15" transform="translate(-28.73 -20.5)"/><path class="cls-4" d="M302.39,254.08V432.21c0,18.81-10,27-22.3,27H126.19c-12.27,0-22.3-8.23-22.3-27V76c0-18.81,10-27,22.3-27H280.09c12.27,0,22.3,8.23,22.3,27Z" transform="translate(-28.73 -20.5)"/><path class="cls-6" d="M297.44,255.5V430.66c0,18.5-9.63,26.59-21.4,26.59H128.34c-11.77,0-21.4-8.09-21.4-26.59V80.34c0-18.5,9.63-26.59,21.4-26.59H276c11.77,0,21.4,8.09,21.4,26.59Z" transform="translate(-28.73 -20.5)"/><path class="cls-2" d="M301.94,254.92V433c0,18.81-10,27-22.3,27H125.74c-12.27,0-22.3-8.23-22.3-27V76.79c0-18.81,10-27,22.3-27H279.63c12.27,0,22.3,8.23,22.3,27Z" transform="translate(-28.73 -20.5)"/><path class="cls-2" d="M270.67,448.25c11,0,19.93-7.76,19.93-25.5V86.83c0-17.74-9-25.5-19.93-25.5H250s0,12.57-10.29,13.27c-6,.41-37.75.88-37.75.88S170.2,75,164.18,74.6c-10.29-.71-10.29-13.27-10.29-13.27H133.2c-11,0-19.93,7.76-19.93,25.5V422.75c0,17.74,9,25.5,19.93,25.5Z" transform="translate(-28.73 -20.5)"/><rect class="cls-2" x="160.21" y="42.58" width="26.38" height="4.67" rx="2.33" ry="2.33"/><circle class="cls-2" cx="194.81" cy="44.77" r="3.13"/><rect class="cls-2" x="72.66" y="151.75" width="1.78" height="28.5"/><rect class="cls-2" x="72.68" y="114.08" width="1.96" height="28.5"/><rect class="cls-2" x="273.21" y="123.25" width="1.96" height="47.13"/><rect class="cls-2" x="72.7" y="85" width="1.96" height="14.25"/><rect class="cls-2" x="91.71" y="378.75" width="162.72" height="44.51" rx="12" ry="12"/><circle class="cls-5" cx="166.21" cy="373.29" r="2.4"/><circle class="cls-2" cx="173.46" cy="373.35" r="1.9"/><circle class="cls-2" cx="180.79" cy="373.35" r="1.9"/><rect class="cls-2" x="97.21" y="74.92" width="29" height="29" rx="7.33" ry="7.33"/><rect class="cls-2" x="138.54" y="74.92" width="29" height="29" rx="7.33" ry="7.33"/><rect class="cls-2" x="179.31" y="74.92" width="29" height="29" rx="7.33" ry="7.33"/><rect class="cls-2" x="220.54" y="74.92" width="29" height="29" rx="7.33" ry="7.33"/><rect class="cls-2" x="97.79" y="123.25" width="29" height="29" rx="7.33" ry="7.33"/><rect class="cls-2" x="139.12" y="123.25" width="29" height="29" rx="7.33" ry="7.33"/><rect class="cls-2" x="179.89" y="123.25" width="29" height="29" rx="7.33" ry="7.33"/><rect class="cls-2" x="221.12" y="123.25" width="29" height="29" rx="7.33" ry="7.33"/><rect class="cls-2" x="97.79" y="171.58" width="29" height="29" rx="7.33" ry="7.33"/><rect class="cls-2" x="139.12" y="171.58" width="29" height="29" rx="7.33" ry="7.33"/><rect class="cls-2" x="179.89" y="171.58" width="29" height="29" rx="7.33" ry="7.33"/><rect class="cls-2" x="221.12" y="171.58" width="29" height="29" rx="7.33" ry="7.33"/><rect class="cls-2" x="98.25" y="220.5" width="29" height="29" rx="7.33" ry="7.33"/><rect class="cls-2" x="139.58" y="220.5" width="29" height="29" rx="7.33" ry="7.33"/><rect class="cls-2" x="97.87" y="269.42" width="29" height="29" rx="7.33" ry="7.33"/><rect class="cls-2" x="139.21" y="269.42" width="29" height="29" rx="7.33" ry="7.33"/><rect class="cls-2" x="180.35" y="220.5" width="29" height="29" rx="7.33" ry="7.33"/><rect class="cls-2" x="221.58" y="220.5" width="29" height="29" rx="7.33" ry="7.33"/><rect class="cls-2" x="97.29" y="386.51" width="29" height="29" rx="7.33" ry="7.33"/><rect class="cls-2" x="138.62" y="386.51" width="29" height="29" rx="7.33" ry="7.33"/><rect class="cls-2" x="179.39" y="386.51" width="29" height="29" rx="7.33" ry="7.33"/><rect class="cls-2" x="220.62" y="386.51" width="29" height="29" rx="7.33" ry="7.33"/><path class="cls-2" d="M386.5,416.5" transform="translate(-28.73 -20.5)"/><path class="cls-2" d="M398.43,409a.55.55,0,0,0,0,1.05l66.69,19.1a5.31,5.31,0,0,0,2.74,0l22.54-6.36a.32.32,0,0,0,0-.61l-70.51-19.55a1.45,1.45,0,0,0-.84,0S404.56,407.22,398.43,409Z" transform="translate(-28.73 -20.5)"/><path class="cls-2" d="M332,413.5" transform="translate(-28.73 -20.5)"/><path class="cls-2" d="M365.09,422.95" transform="translate(-28.73 -20.5)"/><path class="cls-2" d="M386.5,416.5" transform="translate(-28.73 -20.5)"/><path class="cls-2" d="M405,427" transform="translate(-28.73 -20.5)"/><path class="cls-2" d="M421,422" transform="translate(-28.73 -20.5)"/><path class="cls-1" d="M408.43,429a.55.55,0,0,0,0,1.05l25.69,8.1a5.31,5.31,0,0,0,2.74,0l20.54-6.36a.32.32,0,0,0,0-.61l-27.51-7.55a1.45,1.45,0,0,0-.84,0S414.56,427.22,408.43,429Z" transform="translate(-28.73 -20.5)"/><line class="cls-1" x1="379.3" y1="408.92" x2="379.3" y2="415"/><line class="cls-1" x1="407.36" y1="417.81" x2="407.36" y2="422.45"/><line class="cls-1" x1="428.77" y1="411" x2="428.77" y2="417"/></g></svg>